/* XPM */
static char *result[] = {
/* columns rows colors chars-per-pixel */
"32 32 45 1 ",
"  c gray22",
". c #393939",
"X c #3A3A3A",
"o c gray23",
"O c #3C3C3C",
"+ c gray24",
"@ c #3E3E3E",
"# c #3F3F3F",
"$ c gray25",
"% c #414141",
"& c gray26",
"* c #434343",
"= c #444444",
"- c gray27",
"; c #464646",
": c gray28",
"> c #484848",
", c #494949",
"< c gray29",
"1 c #4B4B4B",
"2 c #4C4C4C",
"3 c gray30",
"4 c #4E4E4E",
"5 c gray31",
"6 c #505050",
"7 c #515151",
"8 c gray32",
"9 c #535353",
"0 c gray33",
"q c #555555",
"w c #565656",
"e c gray34",
"r c #585858",
"t c gray35",
"y c #5A5A5A",
"u c #5B5B5B",
"i c gray36",
"p c #5D5D5D",
"a c gray37",
"s c #5F5F5F",
"d c #606060",
"f c gray38",
"g c #656565",
"h c DimGray",
"j c gray43",
/* pixels */
"9ey94332<>,130pu946986qsi83,-&:1",
"9qw74332>==;,300758re760842,;=>2",
"87555433<&@@%=17077985331,>>-;,2",
"61,575454-O.X#>9y0545441:*=-=;<2",
"2;=364331*o .$<7q7459q94>==:<223",
",*&>1<<<;#oo@=158648uda044359064",
"2;*;;->>=$$*-,38e068ufdeqyr0q064",
"62>,>;>:==:<224qpr769ww90yr86643",
"8546731>=;167547q954456890743333",
"767et83<;>4qe8435532349yt8311233",
"446984221149051<131,14qai81::<23",
"353<:>1345441;--:,:;<37q05<-->13",
"696,->148q61=%*;><,><23443<>;:<2",
"7w03,,<29r81=*;<22,:;<332<<<:-;,",
"58741,::3851:;<231:%&<562:><;%&:",
"34652;&&>332355442=@%1771-:1>$$-",
"35003;%*,4549rq753*O@=::=&:2<*&:",
"38tt7,;,509670q95>#.XO++O#;1<::<",
"37ee62137e05450e5*X X+@OXO=<4532",
"35863223452<13702%O+$%%@.o*18e84",
"331>,2111>=-<355<==,<=%O.O=29e84",
"32,:,1>:,;%=14663<398,%OX+-15753",
"32<,>-$&;*#&<50e844872;#o@-<1123",
"2,:;-#o+%#O#>6tiq534452*O@-,::,2",
",=$$%+..Ooo$>8iu8433589>$&:,;->2",
";$oO#+X.XXO&,509533348q4:><1,,<2",
"*#O+$%##@+$-:,233457435555457533",
"-=*=:,>:=%*:;->1349r82259056e943",
",<<160951:><>:,2349e942355<27412",
"2345wpie9787557533688521<<>::--,",
"36900errtafiwer84359e831147<&@$;",
"40pi0670uhjgr006335rfr534ea8=@#-"
};
