/* XPM */
static char *_1edf94ff7d843f9feaa13389140a669C2jaAc269J9LKwJ3[] = {
/* columns rows colors chars-per-pixel */
"64 64 5 1 ",
"  c None",
". c gray7",
"X c #1F3016",
"o c #626262",
"O c #E4E4E4",
/* pixels */
"                    ........................                    ",
"                    ........................                    ",
"                    ........................                    ",
"                    ........................                    ",
"                ....OOOOOOOOOOOOOOOOOOOOOOOO....                ",
"                ....OOOOOOOOOOOOOOOOOOOOOOOO....                ",
"                ....OOOOOOOOOOOOOOOOOOOOOOOO....                ",
"                ....OOOOOOOOOOOOOOOOOOOOOOOO....                ",
"            ....OOOOOOOOOOOOOOOOOOOOOOOOOOOOOOOO....            ",
"            ....OOOOOOOOOOOOOOOOOOOOOOOOOOOOOOOO....            ",
"            ....OOOOOOOOOOOOOOOOOOOOOOOOOOOOOOOO....            ",
"            ....OOOOOOOOOOOOOOOOOOOOOOOOOOOOOOOO....            ",
"            ....OOOO........OOOOOOOO........OOOO....            ",
"            ....OOOO........OOOOOOOO........OOOO....            ",
"            ....OOOO........OOOOOOOO........OOOO....            ",
"            ....OOOO........OOOOOOOO........OOOO....            ",
"        ....oooo....ooooooooOOOOOOOOoooooooo....oooo....        ",
"        ....oooo....ooooooooOOOOOOOOoooooooo....oooo....        ",
"        ....oooo....ooooooooOOOOOOOOoooooooo....oooo....        ",
"        ....oooo....ooooooooOOOOOOOOoooooooo....oooo....        ",
"        ....ooooOOOOXXXXXXXXooooooooXXXXXXXXOOOOoooo....        ",
"        ....ooooOOOOXXXXXXXXooooooooXXXXXXXXOOOOoooo....        ",
"        ....ooooOOOOXXXXXXXXooooooooXXXXXXXXOOOOoooo....        ",
"        ....ooooOOOOXXXXXXXXooooooooXXXXXXXXOOOOoooo....        ",
"            ....OOOOooooXXXXooooooooXXXXooooOOOO....            ",
"            ....OOOOooooXXXXooooooooXXXXooooOOOO....            ",
"            ....OOOOooooXXXXooooooooXXXXooooOOOO....            ",
"            ....OOOOooooXXXXooooooooXXXXooooOOOO....            ",
"                ....OOOOooooooooooooooooOOOO....                ",
"                ....OOOOooooooooooooooooOOOO....                ",
"                ....OOOOooooooooooooooooOOOO....                ",
"                ....OOOOooooooooooooooooOOOO....                ",
"            ....OOOO........................OOOO....            ",
"            ....OOOO........................OOOO....            ",
"            ....OOOO........................OOOO....            ",
"            ....OOOO........................OOOO....            ",
"        ....OOOOOOOOOOOOooooooooooooooooOOOOOOOOOOOO....        ",
"        ....OOOOOOOOOOOOooooooooooooooooOOOOOOOOOOOO....        ",
"        ....OOOOOOOOOOOOooooooooooooooooOOOOOOOOOOOO....        ",
"        ....OOOOOOOOOOOOooooooooooooooooOOOOOOOOOOOO....        ",
"        ....oooo....OOOOOOOOooooooooOOOO....OOOOOOOO....        ",
"        ....oooo....OOOOOOOOooooooooOOOO....OOOOOOOO....        ",
"        ....oooo....OOOOOOOOooooooooOOOO....OOOOOOOO....        ",
"        ....oooo....OOOOOOOOooooooooOOOO....OOOOOOOO....        ",
"            ................OOOOOOOOOOOO....ooooOOOO....        ",
"            ................OOOOOOOOOOOO....ooooOOOO....        ",
"            ................OOOOOOOOOOOO....ooooOOOO....        ",
"            ................OOOOOOOOOOOO....ooooOOOO....        ",
"                ....oooooooo....OOOOOOOO............            ",
"                ....oooooooo....OOOOOOOO............            ",
"                ....oooooooo....OOOOOOOO............            ",
"                ....oooooooo....OOOOOOOO............            ",
"                ....OOOOOOOO................                    ",
"                ....OOOOOOOO................                    ",
"                ....OOOOOOOO................                    ",
"                ....OOOOOOOO................                    ",
"                    ....................                        ",
"                    ....................                        ",
"                    ....................                        ",
"                    ....................                        ",
"                                                                ",
"                                                                ",
"                                                                ",
"                                                                "
};
