/* XPM */
static char *ef0747f4b8e84617a2561ffa97618a79xvMPt32xO9jAmYLu[] = {
/* columns rows colors chars-per-pixel */
"64 64 5 1 ",
"  c None",
". c #181817",
"X c #EA3100",
"o c #FED100",
"O c #F4F0ED",
/* pixels */
"                                                                ",
"                                                                ",
"                                                                ",
"                                                                ",
"                                                                ",
"                                                                ",
"                                                                ",
"                                                                ",
"                                                                ",
"                                                                ",
"                                                                ",
"                                                                ",
"                                                                ",
"                                                                ",
"                                                                ",
"                                                                ",
"                                                                ",
"                                                                ",
"                                                                ",
"                           ........                             ",
"                          .ooooooo.                             ",
"                         .oo........                            ",
"                        .ooo.oooooo..                           ",
"                       ..oooooooooooo.                          ",
"                      ..oooooooooooooo.                         ",
"                     ..oooooooo.....ooo.                        ",
"                    ..oooooooo.ooooooooo.                       ",
"                    .oooooooo.oooooOOoo..                       ",
"                    .ooooooo.ooooooO..oXX.                      ",
"                   ..oooooo.ooooooooO.oXXX.                     ",
"                   .ooooooo.ooooo.ooooo.XXX.                    ",
"                   .ooooooo.oooo.oooooo.XXX.                    ",
"                   .ooooooo.oooo.oooooo.XXX.                    ",
"                   .ooooooo.ooooo.ooooo.XXX.                    ",
"                   ..oooooo.ooooooooO.oXXX.                     ",
"                    .ooooooo.ooooooO..oXX.                      ",
"                    .oooooooo.oooooOOoo..                       ",
"                    ..oooooooo.ooooooooo.                       ",
"                     ..oooooooo.....ooo.                        ",
"                      ..oooooooooooooo.                         ",
"                       ..oooooooooooo.                          ",
"                        .oooooooooo..                           ",
"                         .oo........                            ",
"                          .ooooooo.                             ",
"                           ........                             ",
"                                                                ",
"                                                                ",
"                                                                ",
"                                                                ",
"                                                                ",
"                                                                ",
"                                                                ",
"                                                                ",
"                                                                ",
"                                                                ",
"                                                                ",
"                                                                ",
"                                                                ",
"                                                                ",
"                                                                ",
"                                                                ",
"                                                                ",
"                                                                ",
"                                                                "
};
