/* XPM */
static char *e01835a22de34ded80a9dfd221414a81G7JLeg9A2A8h08ZU[] = {
/* columns rows colors chars-per-pixel */
"64 64 4 1 ",
"  c gray55",
". c gray74",
"X c gray76",
"o c gray90",
/* pixels */
"................................................................",
".oooooooooooooooooooooooooooooooooooooooooooooooooooooooooooooo.",
".oooooooooooooooooooooooooooooooooooooooooooooooooooooooooooooo.",
".oooooooooooooooooooooooooooooooooooooooooooooooooooooooooooooo.",
".oooooooooooooooooooooooooooooooooooooooooooooooooooooooooooooo.",
".oooooooooooooooooooooooooooooooooooooooooooooooooooooooooooooo.",
".ooooooooooooooooooooooooooooooooooooooooooooXooooooooooooooooo.",
".oooooooooooooooooooooooooooooooooooooooooooooooooooooooooooooo.",
".oooooooooooooooooooooooooooooooooooooooooooooooooooooooooooooo.",
".oooooooooooooooooooooooooooooooooooooooooooooooooooooooooooooo.",
".oooooooooooooooooooooooooooooooo ooooooooooooooooooooooooooooo.",
".ooooooooooooo ooooooooooooooooooooooooooooooooooooooooooXooooo.",
".oooooooooooooooooooooooooooooooooooooooooooooooooooooooooooooo.",
".oooooooooooooooooooooooooooooooooooooooooooooooooooooooooooooo.",
".ooooooooooooooooooooooooooooooooooooooooooooooo oooooooooooooo.",
".oooooooooooooooooooooooooooooooooooooooooooooooooooooooooooooo.",
".oooooooooooooooooooooooooooooooooooooooooooooooooooooooooooooo.",
".ooooooXooooooooooooooooooooooooooooooooooooooooooooooooooooooo.",
".oooooooooooooooooooooooooooooooooooooooooooooooooooooooooooooo.",
".ooooooooooooooooooooooooooooooooooooo oooooooooooooooooooooooo.",
".oooooooooooooooooooooooooooooooooooooooooooooooooooooooooooooo.",
".oooooooooooooooooooooooooooooooooooooooooooooooooooooooooooooo.",
".oooooooooooooooooooooooooooooooooooooooooooooXoooooooooooooooo.",
".ooooooooooooooooXooooooooooooooooooooooooooooooooooooooooooooo.",
".oooooooooooooooooooooooooooooooooooooooooooooooooooooooooooooo.",
".ooooooXooooooooooooooooooooooooooooooooooooooooooooooooo ooooo.",
".oooooooooooooooooooooooooooooooooooooooooooooooooooooooooooooo.",
".oooooooooooooooooooooooooooooooooooooooooooooooooooooooooooooo.",
".oooooooooooooooooooooooooooooooooooooooooooooooooooooooooooooo.",
".oooooooooooooooooooooooooooooooooooooooooooooooooooooooooooooo.",
".oooooooooooooooooooooooooooooooooooooooooooooooooooooooooooooo.",
".oooooooooooooooooooooooooooooooooooooooooooooooooooooooooooooo.",
".ooooooooooooooooooooooooooooooooooooooooooXooooooooooXoooooooo.",
".oooooooooooooooooooooooooooooooooooooooooooooooooooooooooooooo.",
".oooooooo ooooooooooo ooooooooooooooooooooooooooooooooooooooooo.",
".oooooooooooooooooooooooooooooooooooooooooooooooooooooooooooooo.",
".oooooooooooooooooooooooooooooooooooooooooooooooooooooooooooooo.",
".oooooooooooooooooooooooooooooooooooooooooooooooooooooooooooooo.",
".oooooooooooooooooooooooooooooooooooooooooooooooooooooooooooooo.",
".oooooooooooooooooooooooooooooooooooooooooooooooooo ooooooooooo.",
".oooooooooooooooooooooooooooooooooooooooooooooooooooooooooooooo.",
".ooooooooooooooooooooooooooooooooo oooooooooooooooooooooooooooo.",
".oooooooooooooooooooooooooooooooooooooooooooooooooooooooooooooo.",
".ooooooooooooXooooooooooooooooooooooooooooooooooooooooooooooooo.",
".oooooooooooooooooooooooooooooooooooooooooooooooooooooooooooooo.",
".oooooooooooooooooooooooooooooooooooooooooooooooooooooooooooooo.",
".ooooooooooooooooooooooooooooooooooooooooXooooooooooooooooooooo.",
".oooooooooooooooooooooooooooooooooooooooooooooooooooooooooooooo.",
".oooooooooooooooooooooooooooooooooooooooooooooooooooooooooooooo.",
".oooooooooooooooooooooooooooooooooooooooooooooooooooooooooooooo.",
".oooooooooooooooooooooooooooooooooooooooooooooooooooooooooooooo.",
".ooooooooooooooooooooooooooooXooooooooooooooooooooooooooooooooo.",
".oooooooooooooooooooooooooooooooooooooooooooooooooooooooooooooo.",
".oooooooooooooooooooooooooooooooooooooooooooooooooooooooooooooo.",
".oooooooooooo ooooooooooooooooooooooooooooooooooooooooooooooooo.",
".oooooooooooooooooooooooooooooooooooooooooooooooooooooooooooooo.",
".ooooooooooooooooooooooooooooooo ooooooooooooooooooooo oooooooo.",
".oooooooooooooooooooooooooooooooooooooooooooooooooXoooooooooooo.",
".oooooooooooooooooooooooooooooooooooooooooooooooooooooooooooooo.",
".oooooooooooooooooooooooXoooooooooooooooooooooooooooooooooooooo.",
".oooooooooooooooooooooooooooooooooooooooooooooooooooooooooooooo.",
".oooooooooooooooooooooooooooooooooooooooooooooooooooooooooooooo.",
".oooooooooooooooooooooooooooooooooooooooooooooooooooooooooooooo.",
"................................................................"
};
