/* XPM */
static char *result[] = {
/* columns rows colors chars-per-pixel */
"64 64 5 1 ",
"  c gray7",
". c #1F3016",
"X c #626262",
"o c #E4E4E4",
"O c None",
/* pixels */
"OOOOOOOOOOOOOOOOOOOOOOOO                        OOOOOOOOOOOOOOOO",
"OOOOOOOOOOOOOOOOOOOOOOOO                        OOOOOOOOOOOOOOOO",
"OOOOOOOOOOOOOOOOOOOOOOOO                        OOOOOOOOOOOOOOOO",
"OOOOOOOOOOOOOOOOOOOOOOOO                        OOOOOOOOOOOOOOOO",
"OOOOOOOOOOOOOOOOOOOO    oooooooooooooooooooooooo    OOOOOOOOOOOO",
"OOOOOOOOOOOOOOOOOOOO    oooooooooooooooooooooooo    OOOOOOOOOOOO",
"OOOOOOOOOOOOOOOOOOOO    oooooooooooooooooooooooo    OOOOOOOOOOOO",
"OOOOOOOOOOOOOOOOOOOO    oooooooooooooooooooooooo    OOOOOOOOOOOO",
"OOOOOOOOOOOOOOOO    oooooooooooooooooooooooooooooooo    OOOOOOOO",
"OOOOOOOOOOOOOOOO    oooooooooooooooooooooooooooooooo    OOOOOOOO",
"OOOOOOOOOOOOOOOO    oooooooooooooooooooooooooooooooo    OOOOOOOO",
"OOOOOOOOOOOOOOOO    oooooooooooooooooooooooooooooooo    OOOOOOOO",
"OOOOOOOOOOOOOOOO    oooooooooooooooooooo        oooo    OOOOOOOO",
"OOOOOOOOOOOOOOOO    oooooooooooooooooooo        oooo    OOOOOOOO",
"OOOOOOOOOOOOOOOO    oooooooooooooooooooo        oooo    OOOOOOOO",
"OOOOOOOOOOOOOOOO    oooooooooooooooooooo        oooo    OOOOOOOO",
"OOOOOOOOOOOOOOOO    ooooXXXXXXXXoooo    XXXXXXXXoooo    OOOOOOOO",
"OOOOOOOOOOOOOOOO    ooooXXXXXXXXoooo    XXXXXXXXoooo    OOOOOOOO",
"OOOOOOOOOOOOOOOO    ooooXXXXXXXXoooo    XXXXXXXXoooo    OOOOOOOO",
"OOOOOOOOOOOOOOOO    ooooXXXXXXXXoooo    XXXXXXXXoooo    OOOOOOOO",
"OOOOOOOOOOOOOOOO    ooooXXXXXXXXooooXXXXXXXX........    OOOOOOOO",
"OOOOOOOOOOOOOOOO    ooooXXXXXXXXooooXXXXXXXX........    OOOOOOOO",
"OOOOOOOOOOOOOOOO    ooooXXXXXXXXooooXXXXXXXX........    OOOOOOOO",
"OOOOOOOOOOOOOOOO    ooooXXXXXXXXooooXXXXXXXX........    OOOOOOOO",
"OOOOOOOOOOOOOOOO    ooooooooXXXXooooXXXXXXXX....XXXX    OOOOOOOO",
"OOOOOOOOOOOOOOOO    ooooooooXXXXooooXXXXXXXX....XXXX    OOOOOOOO",
"OOOOOOOOOOOOOOOO    ooooooooXXXXooooXXXXXXXX....XXXX    OOOOOOOO",
"OOOOOOOOOOOOOOOO    ooooooooXXXXooooXXXXXXXX....XXXX    OOOOOOOO",
"OOOOOOOOOOOOOOOO        ooooooooooooooooXXXXXXXX    OOOOOOOOOOOO",
"OOOOOOOOOOOOOOOO        ooooooooooooooooXXXXXXXX    OOOOOOOOOOOO",
"OOOOOOOOOOOOOOOO        ooooooooooooooooXXXXXXXX    OOOOOOOOOOOO",
"OOOOOOOOOOOOOOOO        ooooooooooooooooXXXXXXXX    OOOOOOOOOOOO",
"OOOOOOOOOOOO    oooooooo                            OOOOOOOOOOOO",
"OOOOOOOOOOOO    oooooooo                            OOOOOOOOOOOO",
"OOOOOOOOOOOO    oooooooo                            OOOOOOOOOOOO",
"OOOOOOOOOOOO    oooooooo                            OOOOOOOOOOOO",
"OOOOOOOO    ooooooooooooooooooooXXXXXXXX    XXXX    OOOOOOOOOOOO",
"OOOOOOOO    ooooooooooooooooooooXXXXXXXX    XXXX    OOOOOOOOOOOO",
"OOOOOOOO    ooooooooooooooooooooXXXXXXXX    XXXX    OOOOOOOOOOOO",
"OOOOOOOO    ooooooooooooooooooooXXXXXXXX    XXXX    OOOOOOOOOOOO",
"OOOOOOOO    ooooXXXX    ooooooooooooXXXX        OOOOOOOOOOOOOOOO",
"OOOOOOOO    ooooXXXX    ooooooooooooXXXX        OOOOOOOOOOOOOOOO",
"OOOOOOOO    ooooXXXX    ooooooooooooXXXX        OOOOOOOOOOOOOOOO",
"OOOOOOOO    ooooXXXX    ooooooooooooXXXX        OOOOOOOOOOOOOOOO",
"OOOOOOOOOOOO            oooooooo                OOOOOOOOOOOOOOOO",
"OOOOOOOOOOOO            oooooooo                OOOOOOOOOOOOOOOO",
"OOOOOOOOOOOO            oooooooo                OOOOOOOOOOOOOOOO",
"OOOOOOOOOOOO            oooooooo                OOOOOOOOOOOOOOOO",
"OOOOOOOOOOOO    XXXX    ooooooooooooooooXXXX    OOOOOOOOOOOOOOOO",
"OOOOOOOOOOOO    XXXX    ooooooooooooooooXXXX    OOOOOOOOOOOOOOOO",
"OOOOOOOOOOOO    XXXX    ooooooooooooooooXXXX    OOOOOOOOOOOOOOOO",
"OOOOOOOOOOOO    XXXX    ooooooooooooooooXXXX    OOOOOOOOOOOOOOOO",
"OOOOOOOOOOOOOOOO                ooooXXXX    OOOOOOOOOOOOOOOOOOOO",
"OOOOOOOOOOOOOOOO                ooooXXXX    OOOOOOOOOOOOOOOOOOOO",
"OOOOOOOOOOOOOOOO                ooooXXXX    OOOOOOOOOOOOOOOOOOOO",
"OOOOOOOOOOOOOOOO                ooooXXXX    OOOOOOOOOOOOOOOOOOOO",
"OOOOOOOOOOOOOOOOOOOOOOOOOOOOOOOO        OOOOOOOOOOOOOOOOOOOOOOOO",
"OOOOOOOOOOOOOOOOOOOOOOOOOOOOOOOO        OOOOOOOOOOOOOOOOOOOOOOOO",
"OOOOOOOOOOOOOOOOOOOOOOOOOOOOOOOO        OOOOOOOOOOOOOOOOOOOOOOOO",
"OOOOOOOOOOOOOOOOOOOOOOOOOOOOOOOO        OOOOOOOOOOOOOOOOOOOOOOOO",
"OOOOOOOOOOOOOOOOOOOOOOOOOOOOOOOOOOOOOOOOOOOOOOOOOOOOOOOOOOOOOOOO",
"OOOOOOOOOOOOOOOOOOOOOOOOOOOOOOOOOOOOOOOOOOOOOOOOOOOOOOOOOOOOOOOO",
"OOOOOOOOOOOOOOOOOOOOOOOOOOOOOOOOOOOOOOOOOOOOOOOOOOOOOOOOOOOOOOOO",
"OOOOOOOOOOOOOOOOOOOOOOOOOOOOOOOOOOOOOOOOOOOOOOOOOOOOOOOOOOOOOOOO"
};
