/* XPM */
static char *result[] = {
/* columns rows colors chars-per-pixel */
"64 64 5 1 ",
"  c gray7",
". c #1F3016",
"X c #626262",
"o c #E4E4E4",
"O c None",
/* pixels */
"OOOOOOOOOOOOOOOOOOOOOOOOOOOOOOOOOOOOOOOOOOOOOOOOOOOOOOOOOOOOOOOO",
"OOOOOOOOOOOOOOOOOOOOOOOOOOOOOOOOOOOOOOOOOOOOOOOOOOOOOOOOOOOOOOOO",
"OOOOOOOOOOOOOOOOOOOOOOOOOOOOOOOOOOOOOOOOOOOOOOOOOOOOOOOOOOOOOOOO",
"OOOOOOOOOOOOOOOOOOOOOOOOOOOOOOOOOOOOOOOOOOOOOOOOOOOOOOOOOOOOOOOO",
"OOOOOOOOOOOOOOOO                        OOOOOOOOOOOOOOOOOOOOOOOO",
"OOOOOOOOOOOOOOOO                        OOOOOOOOOOOOOOOOOOOOOOOO",
"OOOOOOOOOOOOOOOO                        OOOOOOOOOOOOOOOOOOOOOOOO",
"OOOOOOOOOOOOOOOO                        OOOOOOOOOOOOOOOOOOOOOOOO",
"OOOOOOOOOOOO    oooooooooooooooooooooooo    OOOOOOOOOOOOOOOOOOOO",
"OOOOOOOOOOOO    oooooooooooooooooooooooo    OOOOOOOOOOOOOOOOOOOO",
"OOOOOOOOOOOO    oooooooooooooooooooooooo    OOOOOOOOOOOOOOOOOOOO",
"OOOOOOOOOOOO    oooooooooooooooooooooooo    OOOOOOOOOOOOOOOOOOOO",
"OOOOOOOO    oooooooooooooooooooooooooooooooo    OOOOOOOOOOOOOOOO",
"OOOOOOOO    oooooooooooooooooooooooooooooooo    OOOOOOOOOOOOOOOO",
"OOOOOOOO    oooooooooooooooooooooooooooooooo    OOOOOOOOOOOOOOOO",
"OOOOOOOO    oooooooooooooooooooooooooooooooo    OOOOOOOOOOOOOOOO",
"OOOOOOOO    oooo        oooooooooooooooooooo    OOOOOOOOOOOOOOOO",
"OOOOOOOO    oooo        oooooooooooooooooooo    OOOOOOOOOOOOOOOO",
"OOOOOOOO    oooo        oooooooooooooooooooo    OOOOOOOOOOOOOOOO",
"OOOOOOOO    oooo        oooooooooooooooooooo    OOOOOOOOOOOOOOOO",
"OOOOOOOO    ooooXXXXXXXX    ooooXXXXXXXXoooo    OOOOOOOOOOOOOOOO",
"OOOOOOOO    ooooXXXXXXXX    ooooXXXXXXXXoooo    OOOOOOOOOOOOOOOO",
"OOOOOOOO    ooooXXXXXXXX    ooooXXXXXXXXoooo    OOOOOOOOOOOOOOOO",
"OOOOOOOO    ooooXXXXXXXX    ooooXXXXXXXXoooo    OOOOOOOOOOOOOOOO",
"OOOOOOOO    XXXX........XXXXooooXXXXXXXXoooo    OOOOOOOOOOOOOOOO",
"OOOOOOOO    XXXX........XXXXooooXXXXXXXXoooo    OOOOOOOOOOOOOOOO",
"OOOOOOOO    XXXX........XXXXooooXXXXXXXXoooo    OOOOOOOOOOOOOOOO",
"OOOOOOOO    XXXX........XXXXooooXXXXXXXXoooo    OOOOOOOOOOOOOOOO",
"OOOOOOOO    XXXX....XXXXXXXXooooXXXXoooooooo    OOOOOOOOOOOOOOOO",
"OOOOOOOO    XXXX....XXXXXXXXooooXXXXoooooooo    OOOOOOOOOOOOOOOO",
"OOOOOOOO    XXXX....XXXXXXXXooooXXXXoooooooo    OOOOOOOOOOOOOOOO",
"OOOOOOOO    XXXX....XXXXXXXXooooXXXXoooooooo    OOOOOOOOOOOOOOOO",
"OOOOOOOOOOOO    XXXXXXXXoooooooooooooooo    OOOOOOOOOOOOOOOOOOOO",
"OOOOOOOOOOOO    XXXXXXXXoooooooooooooooo    OOOOOOOOOOOOOOOOOOOO",
"OOOOOOOOOOOO    XXXXXXXXoooooooooooooooo    OOOOOOOOOOOOOOOOOOOO",
"OOOOOOOOOOOO    XXXXXXXXoooooooooooooooo    OOOOOOOOOOOOOOOOOOOO",
"OOOOOOOOOOOOOOOO                        OOOOOOOOOOOOOOOOOOOOOOOO",
"OOOOOOOOOOOOOOOO                        OOOOOOOOOOOOOOOOOOOOOOOO",
"OOOOOOOOOOOOOOOO                        OOOOOOOOOOOOOOOOOOOOOOOO",
"OOOOOOOOOOOOOOOO                        OOOOOOOOOOOOOOOOOOOOOOOO",
"OOOOOOOOOOOOOOOO    XXXXXXXXoooooooo    OOOOOOOOOOOOOOOOOOOOOOOO",
"OOOOOOOOOOOOOOOO    XXXXXXXXoooooooo    OOOOOOOOOOOOOOOOOOOOOOOO",
"OOOOOOOOOOOOOOOO    XXXXXXXXoooooooo    OOOOOOOOOOOOOOOOOOOOOOOO",
"OOOOOOOOOOOOOOOO    XXXXXXXXoooooooo    OOOOOOOOOOOOOOOOOOOOOOOO",
"OOOOOOOOOOOOOOOO    XXXX    oooooooo    OOOOOOOOOOOOOOOOOOOOOOOO",
"OOOOOOOOOOOOOOOO    XXXX    oooooooo    OOOOOOOOOOOOOOOOOOOOOOOO",
"OOOOOOOOOOOOOOOO    XXXX    oooooooo    OOOOOOOOOOOOOOOOOOOOOOOO",
"OOOOOOOOOOOOOOOO    XXXX    oooooooo    OOOOOOOOOOOOOOOOOOOOOOOO",
"OOOOOOOOOOOOOOOO    oooo    XXXXoooo    OOOOOOOOOOOOOOOOOOOOOOOO",
"OOOOOOOOOOOOOOOO    oooo    XXXXoooo    OOOOOOOOOOOOOOOOOOOOOOOO",
"OOOOOOOOOOOOOOOO    oooo    XXXXoooo    OOOOOOOOOOOOOOOOOOOOOOOO",
"OOOOOOOOOOOOOOOO    oooo    XXXXoooo    OOOOOOOOOOOOOOOOOOOOOOOO",
"OOOOOOOOOOOOOOOO    oooooooo        OOOOOOOOOOOOOOOOOOOOOOOOOOOO",
"OOOOOOOOOOOOOOOO    oooooooo        OOOOOOOOOOOOOOOOOOOOOOOOOOOO",
"OOOOOOOOOOOOOOOO    oooooooo        OOOOOOOOOOOOOOOOOOOOOOOOOOOO",
"OOOOOOOOOOOOOOOO    oooooooo        OOOOOOOOOOOOOOOOOOOOOOOOOOOO",
"OOOOOOOOOOOOOOOO        oooooooo    OOOOOOOOOOOOOOOOOOOOOOOOOOOO",
"OOOOOOOOOOOOOOOO        oooooooo    OOOOOOOOOOOOOOOOOOOOOOOOOOOO",
"OOOOOOOOOOOOOOOO        oooooooo    OOOOOOOOOOOOOOOOOOOOOOOOOOOO",
"OOOOOOOOOOOOOOOO        oooooooo    OOOOOOOOOOOOOOOOOOOOOOOOOOOO",
"OOOOOOOOOOOOOOOO        XXXXXXXX    OOOOOOOOOOOOOOOOOOOOOOOOOOOO",
"OOOOOOOOOOOOOOOO        XXXXXXXX    OOOOOOOOOOOOOOOOOOOOOOOOOOOO",
"OOOOOOOOOOOOOOOO        XXXXXXXX    OOOOOOOOOOOOOOOOOOOOOOOOOOOO",
"OOOOOOOOOOOOOOOO        XXXXXXXX    OOOOOOOOOOOOOOOOOOOOOOOOOOOO"
};
