/* XPM */
static char *result[] = {
/* columns rows colors chars-per-pixel */
"64 64 5 1 ",
"  c gray7",
". c #1F3016",
"X c #626262",
"o c #E4E4E4",
"O c None",
/* pixels */
"OOOOOOOOOOOOOOOO                        OOOOOOOOOOOOOOOOOOOOOOOO",
"OOOOOOOOOOOOOOOO                        OOOOOOOOOOOOOOOOOOOOOOOO",
"OOOOOOOOOOOOOOOO                        OOOOOOOOOOOOOOOOOOOOOOOO",
"OOOOOOOOOOOOOOOO                        OOOOOOOOOOOOOOOOOOOOOOOO",
"OOOOOOOOOOOO    oooooooooooooooooooooooo    OOOOOOOOOOOOOOOOOOOO",
"OOOOOOOOOOOO    oooooooooooooooooooooooo    OOOOOOOOOOOOOOOOOOOO",
"OOOOOOOOOOOO    oooooooooooooooooooooooo    OOOOOOOOOOOOOOOOOOOO",
"OOOOOOOOOOOO    oooooooooooooooooooooooo    OOOOOOOOOOOOOOOOOOOO",
"OOOOOOOO    oooooooooooooooooooooooooooooooo    OOOOOOOOOOOOOOOO",
"OOOOOOOO    oooooooooooooooooooooooooooooooo    OOOOOOOOOOOOOOOO",
"OOOOOOOO    oooooooooooooooooooooooooooooooo    OOOOOOOOOOOOOOOO",
"OOOOOOOO    oooooooooooooooooooooooooooooooo    OOOOOOOOOOOOOOOO",
"OOOOOOOO    oooo        oooooooooooooooooooo    OOOOOOOOOOOOOOOO",
"OOOOOOOO    oooo        oooooooooooooooooooo    OOOOOOOOOOOOOOOO",
"OOOOOOOO    oooo        oooooooooooooooooooo    OOOOOOOOOOOOOOOO",
"OOOOOOOO    oooo        oooooooooooooooooooo    OOOOOOOOOOOOOOOO",
"OOOOOOOO    ooooXXXXXXXX    ooooXXXXXXXXoooo    OOOOOOOOOOOOOOOO",
"OOOOOOOO    ooooXXXXXXXX    ooooXXXXXXXXoooo    OOOOOOOOOOOOOOOO",
"OOOOOOOO    ooooXXXXXXXX    ooooXXXXXXXXoooo    OOOOOOOOOOOOOOOO",
"OOOOOOOO    ooooXXXXXXXX    ooooXXXXXXXXoooo    OOOOOOOOOOOOOOOO",
"OOOOOOOO    XXXX........XXXXooooXXXXXXXXoooo    OOOOOOOOOOOOOOOO",
"OOOOOOOO    XXXX........XXXXooooXXXXXXXXoooo    OOOOOOOOOOOOOOOO",
"OOOOOOOO    XXXX........XXXXooooXXXXXXXXoooo    OOOOOOOOOOOOOOOO",
"OOOOOOOO    XXXX........XXXXooooXXXXXXXXoooo    OOOOOOOOOOOOOOOO",
"OOOOOOOO    XXXX....XXXXXXXXooooXXXXoooooooo    OOOOOOOOOOOOOOOO",
"OOOOOOOO    XXXX....XXXXXXXXooooXXXXoooooooo    OOOOOOOOOOOOOOOO",
"OOOOOOOO    XXXX....XXXXXXXXooooXXXXoooooooo    OOOOOOOOOOOOOOOO",
"OOOOOOOO    XXXX....XXXXXXXXooooXXXXoooooooo    OOOOOOOOOOOOOOOO",
"OOOOOOOOOOOO    XXXXXXXXoooooooooooooooo        OOOOOOOOOOOOOOOO",
"OOOOOOOOOOOO    XXXXXXXXoooooooooooooooo        OOOOOOOOOOOOOOOO",
"OOOOOOOOOOOO    XXXXXXXXoooooooooooooooo        OOOOOOOOOOOOOOOO",
"OOOOOOOOOOOO    XXXXXXXXoooooooooooooooo        OOOOOOOOOOOOOOOO",
"OOOOOOOOOOOO                            oooooooo    OOOOOOOOOOOO",
"OOOOOOOOOOOO                            oooooooo    OOOOOOOOOOOO",
"OOOOOOOOOOOO                            oooooooo    OOOOOOOOOOOO",
"OOOOOOOOOOOO                            oooooooo    OOOOOOOOOOOO",
"OOOOOOOOOOOO    XXXX    XXXXXXXXoooooooooooooooooooo    OOOOOOOO",
"OOOOOOOOOOOO    XXXX    XXXXXXXXoooooooooooooooooooo    OOOOOOOO",
"OOOOOOOOOOOO    XXXX    XXXXXXXXoooooooooooooooooooo    OOOOOOOO",
"OOOOOOOOOOOO    XXXX    XXXXXXXXoooooooooooooooooooo    OOOOOOOO",
"OOOOOOOOOOOOOOOO        XXXXoooooooooooo    XXXXoooo    OOOOOOOO",
"OOOOOOOOOOOOOOOO        XXXXoooooooooooo    XXXXoooo    OOOOOOOO",
"OOOOOOOOOOOOOOOO        XXXXoooooooooooo    XXXXoooo    OOOOOOOO",
"OOOOOOOOOOOOOOOO        XXXXoooooooooooo    XXXXoooo    OOOOOOOO",
"OOOOOOOOOOOOOOOO                oooooooo            OOOOOOOOOOOO",
"OOOOOOOOOOOOOOOO                oooooooo            OOOOOOOOOOOO",
"OOOOOOOOOOOOOOOO                oooooooo            OOOOOOOOOOOO",
"OOOOOOOOOOOOOOOO                oooooooo            OOOOOOOOOOOO",
"OOOOOOOOOOOOOOOO    XXXXoooooooooooooooo    XXXX    OOOOOOOOOOOO",
"OOOOOOOOOOOOOOOO    XXXXoooooooooooooooo    XXXX    OOOOOOOOOOOO",
"OOOOOOOOOOOOOOOO    XXXXoooooooooooooooo    XXXX    OOOOOOOOOOOO",
"OOOOOOOOOOOOOOOO    XXXXoooooooooooooooo    XXXX    OOOOOOOOOOOO",
"OOOOOOOOOOOOOOOOOOOO    XXXXoooo                OOOOOOOOOOOOOOOO",
"OOOOOOOOOOOOOOOOOOOO    XXXXoooo                OOOOOOOOOOOOOOOO",
"OOOOOOOOOOOOOOOOOOOO    XXXXoooo                OOOOOOOOOOOOOOOO",
"OOOOOOOOOOOOOOOOOOOO    XXXXoooo                OOOOOOOOOOOOOOOO",
"OOOOOOOOOOOOOOOOOOOOOOOO        OOOOOOOOOOOOOOOOOOOOOOOOOOOOOOOO",
"OOOOOOOOOOOOOOOOOOOOOOOO        OOOOOOOOOOOOOOOOOOOOOOOOOOOOOOOO",
"OOOOOOOOOOOOOOOOOOOOOOOO        OOOOOOOOOOOOOOOOOOOOOOOOOOOOOOOO",
"OOOOOOOOOOOOOOOOOOOOOOOO        OOOOOOOOOOOOOOOOOOOOOOOOOOOOOOOO",
"OOOOOOOOOOOOOOOOOOOOOOOOOOOOOOOOOOOOOOOOOOOOOOOOOOOOOOOOOOOOOOOO",
"OOOOOOOOOOOOOOOOOOOOOOOOOOOOOOOOOOOOOOOOOOOOOOOOOOOOOOOOOOOOOOOO",
"OOOOOOOOOOOOOOOOOOOOOOOOOOOOOOOOOOOOOOOOOOOOOOOOOOOOOOOOOOOOOOOO",
"OOOOOOOOOOOOOOOOOOOOOOOOOOOOOOOOOOOOOOOOOOOOOOOOOOOOOOOOOOOOOOOO"
};
