/* XPM */
static char *result[] = {
/* columns rows colors chars-per-pixel */
"64 64 5 1 ",
"  c gray7",
". c #1F3016",
"X c #626262",
"o c #E4E4E4",
"O c None",
/* pixels */
"OOOOOOOOOOOOOOOOOOOOOOOOOOOOOOOOOOOOOOOOOOOOOOOOOOOOOOOOOOOOOOOO",
"OOOOOOOOOOOOOOOOOOOOOOOOOOOOOOOOOOOOOOOOOOOOOOOOOOOOOOOOOOOOOOOO",
"OOOOOOOOOOOOOOOOOOOOOOOOOOOOOOOOOOOOOOOOOOOOOOOOOOOOOOOOOOOOOOOO",
"OOOOOOOOOOOOOOOOOOOOOOOOOOOOOOOOOOOOOOOOOOOOOOOOOOOOOOOOOOOOOOOO",
"OOOOOOOOOOOOOOOOOOOOOOOO                        OOOOOOOOOOOOOOOO",
"OOOOOOOOOOOOOOOOOOOOOOOO                        OOOOOOOOOOOOOOOO",
"OOOOOOOOOOOOOOOOOOOOOOOO                        OOOOOOOOOOOOOOOO",
"OOOOOOOOOOOOOOOOOOOOOOOO                        OOOOOOOOOOOOOOOO",
"OOOOOOOOOOOOOOOOOOOO    oooooooooooooooooooooooo    OOOOOOOOOOOO",
"OOOOOOOOOOOOOOOOOOOO    oooooooooooooooooooooooo    OOOOOOOOOOOO",
"OOOOOOOOOOOOOOOOOOOO    oooooooooooooooooooooooo    OOOOOOOOOOOO",
"OOOOOOOOOOOOOOOOOOOO    oooooooooooooooooooooooo    OOOOOOOOOOOO",
"OOOOOOOOOOOOOOOO    oooooooooooooooooooooooooooooooo    OOOOOOOO",
"OOOOOOOOOOOOOOOO    oooooooooooooooooooooooooooooooo    OOOOOOOO",
"OOOOOOOOOOOOOOOO    oooooooooooooooooooooooooooooooo    OOOOOOOO",
"OOOOOOOOOOOOOOOO    oooooooooooooooooooooooooooooooo    OOOOOOOO",
"OOOOOOOOOOOOOOOO    oooooooooooooooooooo        oooo    OOOOOOOO",
"OOOOOOOOOOOOOOOO    oooooooooooooooooooo        oooo    OOOOOOOO",
"OOOOOOOOOOOOOOOO    oooooooooooooooooooo        oooo    OOOOOOOO",
"OOOOOOOOOOOOOOOO    oooooooooooooooooooo        oooo    OOOOOOOO",
"OOOOOOOOOOOOOOOO    ooooXXXXXXXXoooo    XXXXXXXXoooo    OOOOOOOO",
"OOOOOOOOOOOOOOOO    ooooXXXXXXXXoooo    XXXXXXXXoooo    OOOOOOOO",
"OOOOOOOOOOOOOOOO    ooooXXXXXXXXoooo    XXXXXXXXoooo    OOOOOOOO",
"OOOOOOOOOOOOOOOO    ooooXXXXXXXXoooo    XXXXXXXXoooo    OOOOOOOO",
"OOOOOOOOOOOOOOOO    ooooXXXXXXXXooooXXXXXXXX........    OOOOOOOO",
"OOOOOOOOOOOOOOOO    ooooXXXXXXXXooooXXXXXXXX........    OOOOOOOO",
"OOOOOOOOOOOOOOOO    ooooXXXXXXXXooooXXXXXXXX........    OOOOOOOO",
"OOOOOOOOOOOOOOOO    ooooXXXXXXXXooooXXXXXXXX........    OOOOOOOO",
"OOOOOOOOOOOOOOOO    ooooooooXXXXooooXXXXXXXX....XXXX    OOOOOOOO",
"OOOOOOOOOOOOOOOO    ooooooooXXXXooooXXXXXXXX....XXXX    OOOOOOOO",
"OOOOOOOOOOOOOOOO    ooooooooXXXXooooXXXXXXXX....XXXX    OOOOOOOO",
"OOOOOOOOOOOOOOOO    ooooooooXXXXooooXXXXXXXX....XXXX    OOOOOOOO",
"OOOOOOOOOOOOOOOOOOOO    ooooooooooooooooXXXXXXXX    OOOOOOOOOOOO",
"OOOOOOOOOOOOOOOOOOOO    ooooooooooooooooXXXXXXXX    OOOOOOOOOOOO",
"OOOOOOOOOOOOOOOOOOOO    ooooooooooooooooXXXXXXXX    OOOOOOOOOOOO",
"OOOOOOOOOOOOOOOOOOOO    ooooooooooooooooXXXXXXXX    OOOOOOOOOOOO",
"OOOOOOOOOOOOOOOOOOOOOOOO                        OOOOOOOOOOOOOOOO",
"OOOOOOOOOOOOOOOOOOOOOOOO                        OOOOOOOOOOOOOOOO",
"OOOOOOOOOOOOOOOOOOOOOOOO                        OOOOOOOOOOOOOOOO",
"OOOOOOOOOOOOOOOOOOOOOOOO                        OOOOOOOOOOOOOOOO",
"OOOOOOOOOOOOOOOOOOOOOOOO    ooooooooXXXXXXXX    OOOOOOOOOOOOOOOO",
"OOOOOOOOOOOOOOOOOOOOOOOO    ooooooooXXXXXXXX    OOOOOOOOOOOOOOOO",
"OOOOOOOOOOOOOOOOOOOOOOOO    ooooooooXXXXXXXX    OOOOOOOOOOOOOOOO",
"OOOOOOOOOOOOOOOOOOOOOOOO    ooooooooXXXXXXXX    OOOOOOOOOOOOOOOO",
"OOOOOOOOOOOOOOOOOOOOOOOO    oooooooo    XXXX    OOOOOOOOOOOOOOOO",
"OOOOOOOOOOOOOOOOOOOOOOOO    oooooooo    XXXX    OOOOOOOOOOOOOOOO",
"OOOOOOOOOOOOOOOOOOOOOOOO    oooooooo    XXXX    OOOOOOOOOOOOOOOO",
"OOOOOOOOOOOOOOOOOOOOOOOO    oooooooo    XXXX    OOOOOOOOOOOOOOOO",
"OOOOOOOOOOOOOOOOOOOOOOOO    ooooXXXX    oooo    OOOOOOOOOOOOOOOO",
"OOOOOOOOOOOOOOOOOOOOOOOO    ooooXXXX    oooo    OOOOOOOOOOOOOOOO",
"OOOOOOOOOOOOOOOOOOOOOOOO    ooooXXXX    oooo    OOOOOOOOOOOOOOOO",
"OOOOOOOOOOOOOOOOOOOOOOOO    ooooXXXX    oooo    OOOOOOOOOOOOOOOO",
"OOOOOOOOOOOOOOOOOOOOOOOOOOOO        oooooooo    OOOOOOOOOOOOOOOO",
"OOOOOOOOOOOOOOOOOOOOOOOOOOOO        oooooooo    OOOOOOOOOOOOOOOO",
"OOOOOOOOOOOOOOOOOOOOOOOOOOOO        oooooooo    OOOOOOOOOOOOOOOO",
"OOOOOOOOOOOOOOOOOOOOOOOOOOOO        oooooooo    OOOOOOOOOOOOOOOO",
"OOOOOOOOOOOOOOOOOOOOOOOOOOOO    oooooooo        OOOOOOOOOOOOOOOO",
"OOOOOOOOOOOOOOOOOOOOOOOOOOOO    oooooooo        OOOOOOOOOOOOOOOO",
"OOOOOOOOOOOOOOOOOOOOOOOOOOOO    oooooooo        OOOOOOOOOOOOOOOO",
"OOOOOOOOOOOOOOOOOOOOOOOOOOOO    oooooooo        OOOOOOOOOOOOOOOO",
"OOOOOOOOOOOOOOOOOOOOOOOOOOOO    XXXXXXXX        OOOOOOOOOOOOOOOO",
"OOOOOOOOOOOOOOOOOOOOOOOOOOOO    XXXXXXXX        OOOOOOOOOOOOOOOO",
"OOOOOOOOOOOOOOOOOOOOOOOOOOOO    XXXXXXXX        OOOOOOOOOOOOOOOO",
"OOOOOOOOOOOOOOOOOOOOOOOOOOOO    XXXXXXXX        OOOOOOOOOOOOOOOO"
};
