/* XPM */
static char *result[] = {
/* columns rows colors chars-per-pixel */
"64 64 5 1 ",
"  c gray7",
". c #1F3016",
"X c #626262",
"o c #E4E4E4",
"O c None",
/* pixels */
"OOOOOOOOOOOOOOOOOOOOOOOO                        OOOOOOOOOOOOOOOO",
"OOOOOOOOOOOOOOOOOOOOOOOO                        OOOOOOOOOOOOOOOO",
"OOOOOOOOOOOOOOOOOOOOOOOO                        OOOOOOOOOOOOOOOO",
"OOOOOOOOOOOOOOOOOOOOOOOO                        OOOOOOOOOOOOOOOO",
"OOOOOOOOOOOOOOOOOOOO    oooooooooooooooooooooooo    OOOOOOOOOOOO",
"OOOOOOOOOOOOOOOOOOOO    oooooooooooooooooooooooo    OOOOOOOOOOOO",
"OOOOOOOOOOOOOOOOOOOO    oooooooooooooooooooooooo    OOOOOOOOOOOO",
"OOOOOOOOOOOOOOOOOOOO    oooooooooooooooooooooooo    OOOOOOOOOOOO",
"OOOOOOOOOOOOOOOO    oooooooooooooooooooooooooooooooo    OOOOOOOO",
"OOOOOOOOOOOOOOOO    oooooooooooooooooooooooooooooooo    OOOOOOOO",
"OOOOOOOOOOOOOOOO    oooooooooooooooooooooooooooooooo    OOOOOOOO",
"OOOOOOOOOOOOOOOO    oooooooooooooooooooooooooooooooo    OOOOOOOO",
"OOOOOOOOOOOOOOOO    oooooooooooooooooooo        oooo    OOOOOOOO",
"OOOOOOOOOOOOOOOO    oooooooooooooooooooo        oooo    OOOOOOOO",
"OOOOOOOOOOOOOOOO    oooooooooooooooooooo        oooo    OOOOOOOO",
"OOOOOOOOOOOOOOOO    oooooooooooooooooooo        oooo    OOOOOOOO",
"OOOOOOOOOOOOOOOO    ooooXXXXXXXXoooo    XXXXXXXXoooo    OOOOOOOO",
"OOOOOOOOOOOOOOOO    ooooXXXXXXXXoooo    XXXXXXXXoooo    OOOOOOOO",
"OOOOOOOOOOOOOOOO    ooooXXXXXXXXoooo    XXXXXXXXoooo    OOOOOOOO",
"OOOOOOOOOOOOOOOO    ooooXXXXXXXXoooo    XXXXXXXXoooo    OOOOOOOO",
"OOOOOOOOOOOOOOOO    ooooXXXXXXXXooooXXXXXXXX........    OOOOOOOO",
"OOOOOOOOOOOOOOOO    ooooXXXXXXXXooooXXXXXXXX........    OOOOOOOO",
"OOOOOOOOOOOOOOOO    ooooXXXXXXXXooooXXXXXXXX........    OOOOOOOO",
"OOOOOOOOOOOOOOOO    ooooXXXXXXXXooooXXXXXXXX........    OOOOOOOO",
"OOOOOOOOOOOOOOOO    ooooooooXXXXooooXXXXXXXX....XXXX    OOOOOOOO",
"OOOOOOOOOOOOOOOO    ooooooooXXXXooooXXXXXXXX....XXXX    OOOOOOOO",
"OOOOOOOOOOOOOOOO    ooooooooXXXXooooXXXXXXXX....XXXX    OOOOOOOO",
"OOOOOOOOOOOOOOOO    ooooooooXXXXooooXXXXXXXX....XXXX    OOOOOOOO",
"OOOOOOOOOOOOOOOOOOOO    ooooooooooooooooXXXXXXXX    OOOOOOOOOOOO",
"OOOOOOOOOOOOOOOOOOOO    ooooooooooooooooXXXXXXXX    OOOOOOOOOOOO",
"OOOOOOOOOOOOOOOOOOOO    ooooooooooooooooXXXXXXXX    OOOOOOOOOOOO",
"OOOOOOOOOOOOOOOOOOOO    ooooooooooooooooXXXXXXXX    OOOOOOOOOOOO",
"OOOOOOOOOOOOOOOOOOOO                            OOOOOOOOOOOOOOOO",
"OOOOOOOOOOOOOOOOOOOO                            OOOOOOOOOOOOOOOO",
"OOOOOOOOOOOOOOOOOOOO                            OOOOOOOOOOOOOOOO",
"OOOOOOOOOOOOOOOOOOOO                            OOOOOOOOOOOOOOOO",
"OOOOOOOOOOOOOOOOOOOO    oooooooo        XXXX    OOOOOOOOOOOOOOOO",
"OOOOOOOOOOOOOOOOOOOO    oooooooo        XXXX    OOOOOOOOOOOOOOOO",
"OOOOOOOOOOOOOOOOOOOO    oooooooo        XXXX    OOOOOOOOOOOOOOOO",
"OOOOOOOOOOOOOOOOOOOO    oooooooo        XXXX    OOOOOOOOOOOOOOOO",
"OOOOOOOOOOOOOOOO        oooooooooooooooo        OOOOOOOOOOOOOOOO",
"OOOOOOOOOOOOOOOO        oooooooooooooooo        OOOOOOOOOOOOOOOO",
"OOOOOOOOOOOOOOOO        oooooooooooooooo        OOOOOOOOOOOOOOOO",
"OOOOOOOOOOOOOOOO        oooooooooooooooo        OOOOOOOOOOOOOOOO",
"OOOOOOOOOOOO    XXXXoooo    ooooooooXXXX            OOOOOOOOOOOO",
"OOOOOOOOOOOO    XXXXoooo    ooooooooXXXX            OOOOOOOOOOOO",
"OOOOOOOOOOOO    XXXXoooo    ooooooooXXXX            OOOOOOOOOOOO",
"OOOOOOOOOOOO    XXXXoooo    ooooooooXXXX            OOOOOOOOOOOO",
"OOOOOOOOOOOO    XXXX    oooo            ooooXXXX    OOOOOOOOOOOO",
"OOOOOOOOOOOO    XXXX    oooo            ooooXXXX    OOOOOOOOOOOO",
"OOOOOOOOOOOO    XXXX    oooo            ooooXXXX    OOOOOOOOOOOO",
"OOOOOOOOOOOO    XXXX    oooo            ooooXXXX    OOOOOOOOOOOO",
"OOOOOOOOOOOOOOOO                    ooooXXXX    OOOOOOOOOOOOOOOO",
"OOOOOOOOOOOOOOOO                    ooooXXXX    OOOOOOOOOOOOOOOO",
"OOOOOOOOOOOOOOOO                    ooooXXXX    OOOOOOOOOOOOOOOO",
"OOOOOOOOOOOOOOOO                    ooooXXXX    OOOOOOOOOOOOOOOO",
"OOOOOOOOOOOOOOOOOOOOOOOOOOOOOOOOOOOO        OOOOOOOOOOOOOOOOOOOO",
"OOOOOOOOOOOOOOOOOOOOOOOOOOOOOOOOOOOO        OOOOOOOOOOOOOOOOOOOO",
"OOOOOOOOOOOOOOOOOOOOOOOOOOOOOOOOOOOO        OOOOOOOOOOOOOOOOOOOO",
"OOOOOOOOOOOOOOOOOOOOOOOOOOOOOOOOOOOO        OOOOOOOOOOOOOOOOOOOO",
"OOOOOOOOOOOOOOOOOOOOOOOOOOOOOOOOOOOOOOOOOOOOOOOOOOOOOOOOOOOOOOOO",
"OOOOOOOOOOOOOOOOOOOOOOOOOOOOOOOOOOOOOOOOOOOOOOOOOOOOOOOOOOOOOOOO",
"OOOOOOOOOOOOOOOOOOOOOOOOOOOOOOOOOOOOOOOOOOOOOOOOOOOOOOOOOOOOOOOO",
"OOOOOOOOOOOOOOOOOOOOOOOOOOOOOOOOOOOOOOOOOOOOOOOOOOOOOOOOOOOOOOOO"
};
