/* XPM */
static char *_ac5bfbcd5394463bc45dbbbd76a36eak1i31MtIPG9z45oO[] = {
/* columns rows colors chars-per-pixel */
"64 64 5 1 ",
"  c None",
". c gray7",
"X c #1F3016",
"o c #626262",
"O c #E4E4E4",
/* pixels */
"                                                                ",
"                                                                ",
"                                                                ",
"                                                                ",
"                    ........................                    ",
"                    ........................                    ",
"                    ........................                    ",
"                    ........................                    ",
"                ....OOOOOOOOOOOOOOOOOOOOOOOO....                ",
"                ....OOOOOOOOOOOOOOOOOOOOOOOO....                ",
"                ....OOOOOOOOOOOOOOOOOOOOOOOO....                ",
"                ....OOOOOOOOOOOOOOOOOOOOOOOO....                ",
"            ....OOOOOOOOOOOOOOOOOOOOOOOOOOOOOOOO....            ",
"            ....OOOOOOOOOOOOOOOOOOOOOOOOOOOOOOOO....            ",
"            ....OOOOOOOOOOOOOOOOOOOOOOOOOOOOOOOO....            ",
"            ....OOOOOOOOOOOOOOOOOOOOOOOOOOOOOOOO....            ",
"            ....OOOO........OOOOOOOO........OOOO....            ",
"            ....OOOO........OOOOOOOO........OOOO....            ",
"            ....OOOO........OOOOOOOO........OOOO....            ",
"            ....OOOO........OOOOOOOO........OOOO....            ",
"        ....oooo....ooooooooOOOOOOOOoooooooo....oooo....        ",
"        ....oooo....ooooooooOOOOOOOOoooooooo....oooo....        ",
"        ....oooo....ooooooooOOOOOOOOoooooooo....oooo....        ",
"        ....oooo....ooooooooOOOOOOOOoooooooo....oooo....        ",
"        ....ooooOOOOXXXXXXXXooooooooXXXXXXXXOOOOoooo....        ",
"        ....ooooOOOOXXXXXXXXooooooooXXXXXXXXOOOOoooo....        ",
"        ....ooooOOOOXXXXXXXXooooooooXXXXXXXXOOOOoooo....        ",
"        ....ooooOOOOXXXXXXXXooooooooXXXXXXXXOOOOoooo....        ",
"            ....OOOOooooXXXXooooooooXXXXooooOOOO....            ",
"            ....OOOOooooXXXXooooooooXXXXooooOOOO....            ",
"            ....OOOOooooXXXXooooooooXXXXooooOOOO....            ",
"            ....OOOOooooXXXXooooooooXXXXooooOOOO....            ",
"                ....OOOOooooooooooooooooOOOO....                ",
"                ....OOOOooooooooooooooooOOOO....                ",
"                ....OOOOooooooooooooooooOOOO....                ",
"                ....OOOOooooooooooooooooOOOO....                ",
"            ....OOOO........................OOOO....            ",
"            ....OOOO........................OOOO....            ",
"            ....OOOO........................OOOO....            ",
"            ....OOOO........................OOOO....            ",
"        ....OOOOOOOOOOOOooooooooooooooooOOOOOOOOOOOO....        ",
"        ....OOOOOOOOOOOOooooooooooooooooOOOOOOOOOOOO....        ",
"        ....OOOOOOOOOOOOooooooooooooooooOOOOOOOOOOOO....        ",
"        ....OOOOOOOOOOOOooooooooooooooooOOOOOOOOOOOO....        ",
"    ....OOOOOOOO....OOOOOOOOooooooooOOOOOOOO....OOOOOOOO....    ",
"    ....OOOOOOOO....OOOOOOOOooooooooOOOOOOOO....OOOOOOOO....    ",
"    ....OOOOOOOO....OOOOOOOOooooooooOOOOOOOO....OOOOOOOO....    ",
"    ....OOOOOOOO....OOOOOOOOooooooooOOOOOOOO....OOOOOOOO....    ",
"    ....OOOOoooo....OOOOOOOOOOOOOOOOOOOOOOOO....ooooOOOO....    ",
"    ....OOOOoooo....OOOOOOOOOOOOOOOOOOOOOOOO....ooooOOOO....    ",
"    ....OOOOoooo....OOOOOOOOOOOOOOOOOOOOOOOO....ooooOOOO....    ",
"    ....OOOOoooo....OOOOOOOOOOOOOOOOOOOOOOOO....ooooOOOO....    ",
"        ............OOOOOOOOOOOOOOOOOOOOOOOO............        ",
"        ............OOOOOOOOOOOOOOOOOOOOOOOO............        ",
"        ............OOOOOOOOOOOOOOOOOOOOOOOO............        ",
"        ............OOOOOOOOOOOOOOOOOOOOOOOO............        ",
"                ....OOOOOOOO........OOOOOOOO....                ",
"                ....OOOOOOOO........OOOOOOOO....                ",
"                ....OOOOOOOO........OOOOOOOO....                ",
"                ....OOOOOOOO........OOOOOOOO....                ",
"                ....oooooooo........oooooooo....                ",
"                ....oooooooo........oooooooo....                ",
"                ....oooooooo........oooooooo....                ",
"                ....oooooooo........oooooooo....                "
};
