/* XPM */
static char *result[] = {
/* columns rows colors chars-per-pixel */
"32 32 149 2 ",
"   c #222114",
".  c #232214",
"X  c #252415",
"o  c #2A2716",
"O  c #28271A",
"+  c #3A3621",
"@  c #423C1D",
"#  c #625826",
"$  c #FE652E",
"%  c #FF652E",
"&  c #FF662E",
"*  c #FF672E",
"=  c #FF682E",
"-  c #FE692F",
";  c #FF6A2E",
":  c #FD6A30",
">  c #FE6A30",
",  c #FD6C30",
"<  c #F7753D",
"1  c #CAA63A",
"2  c #CAAB3D",
"3  c #F4C83E",
"4  c #F9CA3C",
"5  c #F8CB3D",
"6  c #FACB3C",
"7  c #F9CB3E",
"8  c #F8CC3D",
"9  c #F9CC3F",
"0  c #818178",
"q  c #DDB347",
"w  c #E1BF46",
"e  c #EDAB5A",
"r  c #EAB663",
"t  c #EFCA46",
"y  c #E2C048",
"u  c #E2C148",
"i  c #E5C54D",
"p  c #ECC74B",
"a  c #EBC94B",
"s  c #EDC94B",
"d  c #ECC84E",
"f  c #EECA4F",
"g  c #EECC4F",
"h  c #F7CC40",
"j  c #F7CC41",
"k  c #F7CC42",
"l  c #F6CD42",
"z  c #F6CD43",
"x  c #F3CA44",
"c  c #F3CA45",
"v  c #F1C946",
"b  c #F2CB46",
"n  c #F3CB46",
"m  c #F2CB47",
"M  c #F5C844",
"N  c #F3CC45",
"B  c #F3CC46",
"V  c #F4CC45",
"C  c #F4CC46",
"Z  c #F5CC46",
"A  c #F4CD46",
"S  c #F5CD46",
"D  c #F4CC47",
"F  c #F4CD47",
"G  c #F5CD47",
"H  c #F7CD46",
"J  c #F6CD47",
"K  c #F5CE47",
"L  c #F6CE46",
"P  c #F6CE47",
"I  c #F8CB41",
"U  c #F8CC40",
"Y  c #F8CD40",
"T  c #F8CD41",
"R  c #F8CC42",
"E  c #F8CC43",
"W  c #F3CC4A",
"Q  c #F4CC48",
"!  c #F4CC49",
"~  c #F5CE49",
"^  c #F6CE48",
"/  c #F6CE49",
"(  c #F5CD4A",
")  c #F4CE4B",
"_  c #F5CE4B",
"`  c #F4CF4B",
"'  c #F6CF4A",
"]  c #F0CB4E",
"[  c #F2CD4C",
"{  c #F0CE4F",
"}  c #F1CF4F",
"|  c #F5CE4C",
" . c #F5CF4C",
".. c #F4CF4D",
"X. c #F5CF4D",
"o. c #F8D040",
"O. c #F6D04B",
"+. c #F3D04C",
"@. c #F6D14D",
"#. c #F5D04F",
"$. c #F4D34E",
"%. c #F7D54F",
"&. c #F9D34D",
"*. c #ECC851",
"=. c #F8CF51",
"-. c #EED15A",
";. c #EDD45E",
":. c #F0D051",
">. c #F2D051",
",. c #F3D151",
"<. c #F6D251",
"1. c #F7D351",
"2. c #F4D252",
"3. c #F5D353",
"4. c #F7D550",
"5. c #F7D551",
"6. c #F7D452",
"7. c #F7D552",
"8. c #F7D453",
"9. c #F7D553",
"0. c #F5D254",
"q. c #F4D255",
"w. c #F4D357",
"e. c #F5D456",
"r. c #F6D457",
"t. c #F9D750",
"y. c #F8D653",
"u. c #F8D753",
"i. c #F3D258",
"p. c #F5D45A",
"a. c #F6D45A",
"s. c #F2D55F",
"d. c #F8D558",
"f. c #EAD766",
"g. c #EBD667",
"h. c #ECD667",
"j. c #EAD768",
"k. c #F9D860",
"l. c #F6DA6C",
"z. c #F9E075",
"x. c #C1B486",
"c. c #E3DE87",
"v. c #D6D2BD",
"b. c #D7EAB0",
"n. c #F9F3DE",
"m. c #FDF7E1",
"M. c #FEF8E3",
"N. c #FFF9E4",
"B. c None",
/* pixels */
"B.B.B.B.B.B.B.B.B.B.B.B.B.B.B.B.B.B.B.B.B.B.B.B.B.B.B.B.B.B.B.B.",
"B.B.B.B.B.B.B.B.B.B.B.B.B.B.B.B.B.B.B.B.B.B.B.B.B.B.B.B.B.B.B.B.",
"B.B.B.B.B.B.B.B.B.B.B.B.B.B.B.B.B.B.B.B.B.B.B.B.B.B.B.B.B.B.B.B.",
"B.B.B.B.B.B.B.B.B.B.B.B.B.B.B.B.B.B.B.B.B.B.B.B.B.B.B.B.B.B.B.B.",
"B.B.B.B.B.B.B.B.B.B.B.B.B.B.B.B.B.B.B.B.B.B.B.B.B.B.B.B.B.B.B.B.",
"B.B.B.B.B.B.B.B.B.B.B.B.B.B.B.B.B.B.B.B.B.B.B.B.B.B.B.B.B.B.B.B.",
"B.B.B.B.B.B.B.B.B.B.B.g.z 5 h k j Y B.B.B.B.B.B.B.B.B.B.B.B.B.B.",
"B.B.B.B.B.B.B.B.B.B.8 U L P G G K J ' B.B.B.B.B.B.B.B.B.B.B.B.B.",
"B.B.B.B.B.B.B.B.B.4 Z D D D G G K / ^ ) R B.B.B.B.B.B.B.B.B.B.B.",
"B.B.B.B.B.B.B.B.6 Z F ~ ~ C C C V ] ! D d *.:.B.B.B.B.B.B.B.B.B.",
"B.B.B.B.B.B.B.l C c ( _ _ H S t +.@.` x.X 2 9 h.B.B.B.B.B.B.B.B.",
"B.B.B.B.B.B.B.7 N W _ | | 0.p <.y.k.n.0 . @ M o.b.B.B.B.B.B.B.B.",
"B.B.B.B.B.B.f.T c | _ _ X.s.>.3.5.9.l.v.o g - ; r B.B.B.B.B.B.B.",
"B.B.B.B.B.B.;.E v _ _ _ [ w { p.4.7.7.$.&.=.: * $ < B.B.B.B.B.B.",
"B.B.B.B.B.B.j.I m _ _ _ w.y 2.r.4.7.7.7.7.u., & & & B.B.B.B.B.B.",
"B.B.B.B.B.B.c.7 x _ _ _ q.u } 8.7.7.7.7.7.7.& & & & & B.B.B.B.B.",
"B.B.B.B.B.B.j.I b | _ _ #.i ,.e.4.7.7.7.7.6.= & & & B.B.B.B.B.B.",
"B.B.B.B.B.B.;.E v | _ _ _ -.a a.4.7.7.%.t.7.> & & % B.B.B.B.B.B.",
"B.B.B.B.B.B.f.T n | _ _ _ i.s d.5.9.z.N.+ q = = e B.B.B.B.B.B.B.",
"B.B.B.B.B.B.B.7 B ) X._ _  ...1.y.k.N.M.    1 o.b.B.B.B.B.B.B.B.",
"B.B.B.B.B.B.B.l C Q D _ _ _ K t +.@.O.m.O # 3 h.B.B.B.B.B.B.B.B.",
"B.B.B.B.B.B.B.B.6 Z A G K C C C V ] ! G f *.:.B.B.B.B.B.B.B.B.B.",
"B.B.B.B.B.B.B.B.B.4 Z D D D G G K / ^ ) R B.B.B.B.B.B.B.B.B.B.B.",
"B.B.B.B.B.B.B.B.B.B.8 U L P G G K J ' B.B.B.B.B.B.B.B.B.B.B.B.B.",
"B.B.B.B.B.B.B.B.B.B.B.g.z 5 h k j Y B.B.B.B.B.B.B.B.B.B.B.B.B.B.",
"B.B.B.B.B.B.B.B.B.B.B.B.B.B.B.B.B.B.B.B.B.B.B.B.B.B.B.B.B.B.B.B.",
"B.B.B.B.B.B.B.B.B.B.B.B.B.B.B.B.B.B.B.B.B.B.B.B.B.B.B.B.B.B.B.B.",
"B.B.B.B.B.B.B.B.B.B.B.B.B.B.B.B.B.B.B.B.B.B.B.B.B.B.B.B.B.B.B.B.",
"B.B.B.B.B.B.B.B.B.B.B.B.B.B.B.B.B.B.B.B.B.B.B.B.B.B.B.B.B.B.B.B.",
"B.B.B.B.B.B.B.B.B.B.B.B.B.B.B.B.B.B.B.B.B.B.B.B.B.B.B.B.B.B.B.B.",
"B.B.B.B.B.B.B.B.B.B.B.B.B.B.B.B.B.B.B.B.B.B.B.B.B.B.B.B.B.B.B.B.",
"B.B.B.B.B.B.B.B.B.B.B.B.B.B.B.B.B.B.B.B.B.B.B.B.B.B.B.B.B.B.B.B."
};
