/* XPM */
static char *result[] = {
/* columns rows colors chars-per-pixel */
"32 32 112 2 ",
"   c black",
".  c #000001",
"X  c #000101",
"o  c #010101",
"O  c #000102",
"+  c #010102",
"@  c #000202",
"#  c #000203",
"$  c gray1",
"%  c #000204",
"&  c #000304",
"*  c #030304",
"=  c #000407",
"-  c #040404",
";  c #060606",
":  c #070707",
">  c #000508",
",  c #000509",
"<  c #00060A",
"1  c #00060B",
"2  c gray3",
"3  c gray4",
"4  c #0B0A0A",
"5  c #0B0B0B",
"6  c #0C0B0B",
"7  c gray5",
"8  c #0E0D0E",
"9  c #0E0E0E",
"0  c gray6",
"q  c #111010",
"w  c #121111",
"e  c #151515",
"r  c #1C1B1C",
"t  c #202020",
"y  c #222324",
"u  c #2D2D2D",
"i  c #313131",
"p  c #606060",
"a  c #6C6C6C",
"s  c gray44",
"d  c gray45",
"f  c #7B767B",
"g  c #7C7C7C",
"h  c #888888",
"j  c #898D89",
"k  c gray58",
"l  c #979899",
"z  c #9A9899",
"x  c #9EA49E",
"c  c #A3A4A4",
"v  c #A8A8A9",
"b  c #A8A9AB",
"n  c #ACAFAC",
"m  c #ADAEAD",
"M  c #AEAEAE",
"N  c #AFAFAF",
"B  c #ADB0AE",
"V  c #AFB0AF",
"C  c #AFB1AF",
"Z  c #AEB3AF",
"A  c gray69",
"S  c #B0B1B0",
"D  c #B1B1B1",
"F  c #B1B2B2",
"G  c #B2B2B2",
"H  c #B2B3B2",
"J  c #B2B4B3",
"K  c #B3B4B3",
"L  c #B4B5B4",
"P  c gray71",
"I  c #B5B6B5",
"U  c #B6B6B6",
"Y  c #B5B7B8",
"T  c #B8B9B9",
"R  c #B9BAB9",
"E  c #B9B9BA",
"W  c gray73",
"Q  c #BBBBBC",
"!  c #BCBCBC",
"~  c gray74",
"^  c gray",
"/  c #BFC0C0",
"(  c #BEC0C2",
")  c #BFC0C2",
"_  c #BFC1C2",
"`  c #C0C2C3",
"'  c #C3C3C3",
"]  c #C2C3C4",
"[  c #C3C4C4",
"{  c gray77",
"}  c #C5C5C5",
"|  c #C8C8C8",
" . c #D2D1D2",
".. c #D2D2D2",
"X. c #D3D2D3",
"o. c gray83",
"O. c gray86",
"+. c gainsboro",
"@. c #DEDDDE",
"#. c gray87",
"$. c #E1E1E1",
"%. c #E2E1E2",
"&. c gray89",
"*. c #E4E4E4",
"=. c gray93",
"-. c gray95",
";. c #F7F0F6",
":. c #F4F4F4",
">. c #F9F2F8",
",. c #FFF5FF",
"<. c #FEFEFE",
"1. c white",
/* pixels */
"1.1.1.1.1.1.1.1.1.1.1.1.1.1.1.1.1.1.1.1.1.1.1.1.1.1.1.1.1.1.1.1.",
"1.1.1.1.1.1.1.1.1.1.1.1.1.1.1.1.1.1.1.1.1.1.1.1.1.1.1.1.1.1.1.1.",
"1.1.1.1.1.1.1.1.1.1.1.1.1.1.1.1.1.1.1.1.1.1.1.1.1.1.1.1.1.1.1.1.",
"1.1.1.1.1.1.1.1.1.1.1.1.1.1.1.1.1.1.1.1.1.1.1.*.| C 1.1.1.1.1.1.",
"1.1.1.1.1.1.1.1.1.1.1.1.1.1.1.1.1.1.1.1.1.1.L G B H 1.1.1.1.1.1.",
"1.1.1.1.1.1.1.1.1.1.1.1.1.1.1.1.1.1.1.$.A M D M z H 1.1.1.1.1.1.",
"1.1.1.1.1.} } } } } 1.1.1.1.1.1.O.K D G E v d y u V 1.1.1.1.1.1.",
"1.1.1.1.1.} a } a } 1.1.1.1.1.=.N b W T p e . + w J 1.1.1.1.1.1.",
"1.1.1.1.1.} } a } } 1.1.1.1.1.:.) h t X   O O o 6 I 1.1.1.1.1.1.",
"1.1.1.1.1.} a } a } 1.1.1.1.1.:.} U   X 1 ,   X 4 L 1.1.1.1.1.1.",
"1.1.1.1.1.} } a } } 1.1.1.1.1.P } {   = < O   X 3 L 1.1.1.1.1.1.",
"1.1.1.1.1.} a } a } 1.1.:.Z x : [ ~   % > O   X 7 L 1.1.1.1.1.1.",
"1.1.1.1.1.} } a } } 1.1.&.,.*.; ] '     = .   . q L 1.1.1.1.1.1.",
"1.1.1.1.1.} a } a } 1.1.*.>.%.; ` ^     @     o 8 I 1.1.1.1.1.1.",
"1.1.1.1.1.} } a } } <.#.*.>.@.; _ Q       &   o 9 R 1.1.1.1.1.1.",
"1.1.1.1.1.} a } a } 3 2 k >.X.: ( ! #     .   * 0 / 1.1.1.1.1.1.",
"1.1.1.1.1.} } a } } W g o ;. .: ( ! #     .   * 0 / 1.1.1.1.1.1.",
"1.1.1.1.1.} a } a } 1.<.i r +.; _ Q       &   o 9 R 1.1.1.1.1.1.",
"1.1.1.1.1.} } a } } 1.1.s 5 ..; Y ^     @     o 8 I 1.1.1.1.1.1.",
"1.1.1.1.1.} a } a } 1.1.o.f ; $ l '     = .   . q L 1.1.1.1.1.1.",
"1.1.1.1.1.} } a } } 1.1.:.n j - c ~   % > O   X 7 L 1.1.1.1.1.1.",
"1.1.1.1.1.} a } a } 1.1.1.1.1.-.} {   = < O   X 3 L 1.1.1.1.1.1.",
"1.1.1.1.1.} } a } } 1.1.1.1.1.:.} U   X 1 ,   X 4 L 1.1.1.1.1.1.",
"1.1.1.1.1.} a } a } 1.1.1.1.1.:.) h t X   O O o 6 I 1.1.1.1.1.1.",
"1.1.1.1.1.} } a } } 1.1.1.1.1.=.N b W T p e . + w J 1.1.1.1.1.1.",
"1.1.1.1.1.} } } } } 1.1.1.1.1.1.O.K D A E v d y u m 1.1.1.1.1.1.",
"1.1.1.1.1.1.1.1.1.1.1.1.1.1.1.1.1.1.1.$.A M D M z S 1.1.1.1.1.1.",
"1.1.1.1.1.1.1.1.1.1.1.1.1.1.1.1.1.1.1.1.1.1.L G B F 1.1.1.1.1.1.",
"1.1.1.1.1.1.1.1.1.1.1.1.1.1.1.1.1.1.1.1.1.1.1.*.| C 1.1.1.1.1.1.",
"1.1.1.1.1.1.1.1.1.1.1.1.1.1.1.1.1.1.1.1.1.1.1.1.1.1.1.1.1.1.1.1.",
"1.1.1.1.1.1.1.1.1.1.1.1.1.1.1.1.1.1.1.1.1.1.1.1.1.1.1.1.1.1.1.1.",
"1.1.1.1.1.1.1.1.1.1.1.1.1.1.1.1.1.1.1.1.1.1.1.1.1.1.1.1.1.1.1.1."
};
