/* XPM */
static char *eed43ea1cdcb445aea07697c2c4d6046WCXxqk6u9typIZTo[] = {
/* columns rows colors chars-per-pixel */
"32 32 121 2 ",
"   c None",
".  c #CF5F00",
"X  c #D75A06",
"o  c #D25C0B",
"O  c #D26000",
"+  c #D36101",
"@  c #D46000",
"#  c #D76302",
"$  c #DC650C",
"%  c #DD6C0C",
"&  c #DC6F0C",
"*  c #D76410",
"=  c #D76B12",
"-  c #EE6600",
";  c #E86A00",
":  c #EE6B00",
">  c #EE6D00",
",  c #EF6D00",
"<  c #ED6F00",
"1  c #EE7203",
"2  c #EE7600",
"3  c #EF7701",
"4  c #EE7307",
"5  c #EF790B",
"6  c #EF790C",
"7  c #EF7B0E",
"8  c #F07002",
"9  c #F07600",
"0  c #EF7713",
"q  c #E2711A",
"w  c #E27718",
"e  c #F07D13",
"r  c #F07F15",
"t  c #DF7A21",
"y  c #E97E20",
"u  c #E87D26",
"i  c #E47B29",
"p  c #F1831C",
"a  c #F2891F",
"s  c #E68127",
"d  c #EE8525",
"f  c #E38A29",
"g  c #EE8A2A",
"h  c #E88E2F",
"j  c #F18826",
"k  c #F28B2A",
"l  c #E28033",
"z  c #E78732",
"x  c #EB8930",
"c  c #E88F31",
"v  c #EB8C3C",
"b  c #E99336",
"n  c #ED913E",
"m  c #EC953C",
"M  c #F49639",
"N  c #D88A4B",
"B  c #D9894C",
"V  c #D38853",
"C  c #EE9244",
"Z  c #EB9840",
"A  c #EE9849",
"S  c #EE9A4B",
"D  c #F59840",
"F  c #F69A41",
"G  c #F49D47",
"H  c #F49D48",
"J  c #EE9F56",
"K  c #F09E51",
"L  c #F29E53",
"P  c #F2A256",
"I  c #F0A555",
"U  c #F5A659",
"Y  c #F5A75B",
"T  c #DCA26D",
"R  c #EAA562",
"E  c #EDA867",
"W  c #E9AC69",
"Q  c #F5AC6A",
"!  c #F6AD6D",
"~  c #F1B06A",
"^  c #E2AB7B",
"/  c #F1B172",
"(  c #F2B172",
")  c #F1B274",
"_  c #F5B57B",
"`  c #F4BC7D",
"'  c #F1BA81",
"]  c #F6BB81",
"[  c #F6BB82",
"{  c #F4BF8A",
"}  c #E0BF9E",
"|  c #DABEA7",
" . c #F5C08C",
".. c #F3C89C",
"X. c #CFC3BD",
"o. c #DECAB4",
"O. c #D9CBBF",
"+. c #DFCFBD",
"@. c #EAC7A3",
"#. c #EFCAA0",
"$. c #E9C8A7",
"%. c #F2C9A0",
"&. c #E8D2B9",
"*. c #F8D9B9",
"=. c #D2C9C4",
"-. c #D4CAC5",
";. c #D7D1CD",
":. c #DBD5D1",
">. c #DAD8D3",
",. c #DDDFDB",
"<. c #F2DFC8",
"1. c #DFE0DD",
"2. c #E1E0D7",
"3. c #EEE8D9",
"4. c #F0E8D9",
"5. c #E0E4E0",
"6. c #E7ECEA",
"7. c #F2ECE3",
"8. c #F5EFE8",
"9. c #EEF4F4",
"0. c #ECF5F8",
/* pixels */
"                                                                ",
"                                                                ",
"                                                                ",
"                                                                ",
"                                                                ",
"                                                                ",
"                              ` *.                              ",
"                            b I b                               ",
"                          ) c m c (                             ",
"                    _ ! E J Z c Z J E ! _                       ",
"                  r - j x 8.W f W 8.x j - r                     ",
"                [ , g ~ n 9.2.+.2.9.n ~ g , [                   ",
"                Y 8 #.' S &.1.:.1.&.S ' #.8 Y                   ",
"                G a 3.%.S R } | } R S %.3.a G                   ",
"                p M 4.7.( g i t i g ( 7.4.M p                   ",
"                e F <.0.@.z w & w z @.0.<.F e                   ",
"                5 D ..6.5.o.T N T o.5.6...F 5                   ",
"                7 k Q $.1.>.;.=.;.>.1.$.Q k 6                   ",
"                H 6 K C ^ O.-.X.=.O.^ C L 6 H                   ",
"                U 4 d v u l N V N l u v d 1 Y                   ",
"                U 1 3 y i q $ X $ q i y 2 1 Y                   ",
"                 ., 2 2 & = * o * = & 2 2 ,  .                  ",
"                  P 1 , ; + . + . + ; , , K                     ",
"                      0 # O X . + + # 0                         ",
"                                                                ",
"                                                                ",
"                                                                ",
"                                                                ",
"                                                                ",
"                                                                ",
"                                                                ",
"                                                                "
};
