/* XPM */
static char * CONE_xpm[] = {
"32 32 106 2",
"  	c None",
". 	c #F4BC7D",
"+ 	c #E99336",
"@ 	c #F0A555",
"# 	c #E88F31",
"$ 	c #EC953C",
"% 	c #EE9F56",
"& 	c #EB9840",
"* 	c #E88E2F",
"= 	c #EE6600",
"- 	c #F18826",
"; 	c #EB8930",
"> 	c #F5EFE8",
", 	c #E9AC69",
"' 	c #E38A29",
") 	c #EF6D00",
"! 	c #EE8A2A",
"~ 	c #F1B06A",
"{ 	c #ED913E",
"] 	c #EEF4F4",
"^ 	c #E1E0D7",
"/ 	c #DFCFBD",
"( 	c #F5A75B",
"_ 	c #F07002",
": 	c #EFCAA0",
"< 	c #F1BA81",
"[ 	c #EE9A4B",
"} 	c #E8D2B9",
"| 	c #DFE0DD",
"1 	c #DBD5D1",
"2 	c #F49D47",
"3 	c #F2891F",
"4 	c #EEE8D9",
"5 	c #F2C9A0",
"6 	c #EE9849",
"7 	c #EAA562",
"8 	c #E0BF9E",
"9 	c #DABEA7",
"0 	c #F1831C",
"a 	c #F49639",
"b 	c #F0E8D9",
"c 	c #F2ECE3",
"d 	c #F2B172",
"e 	c #E68127",
"f 	c #DF7A21",
"g 	c #F07D13",
"h 	c #F69A41",
"i 	c #F2DFC8",
"j 	c #ECF5F8",
"k 	c #EAC7A3",
"l 	c #E78732",
"m 	c #E27718",
"n 	c #DD6C0C",
"o 	c #EF790B",
"p 	c #F59840",
"q 	c #F3C89C",
"r 	c #E7ECEA",
"s 	c #E0E4E0",
"t 	c #DECAB4",
"u 	c #DCA26D",
"v 	c #D88A4B",
"w 	c #EF7B0E",
"x 	c #F28B2A",
"y 	c #F5AC6A",
"z 	c #E9C8A7",
"A 	c #DDDFDB",
"B 	c #DAD8D3",
"C 	c #D7D1CD",
"D 	c #D2C9C4",
"E 	c #F49D48",
"F 	c #EF790C",
"G 	c #F29E53",
"H 	c #EE9244",
"I 	c #E2AB7B",
"J 	c #D9CBBF",
"K 	c #D4CAC5",
"L 	c #CFC3BD",
"M 	c #EE7307",
"N 	c #EE8525",
"O 	c #EB8C3C",
"P 	c #E87D26",
"Q 	c #E28033",
"R 	c #D9894C",
"S 	c #D38853",
"T 	c #EE7203",
"U 	c #EF7701",
"V 	c #E97E20",
"W 	c #E47B29",
"X 	c #E2711A",
"Y 	c #DC650C",
"Z 	c #D75A06",
"` 	c #EE6B00",
" .	c #F07600",
"..	c #EE7600",
"+.	c #DC6F0C",
"@.	c #D76B12",
"#.	c #D76410",
"$.	c #D25C0B",
"%.	c #ED6F00",
"&.	c #EE6D00",
"*.	c #E86A00",
"=.	c #D46000",
"-.	c #CF5F00",
";.	c #D26000",
">.	c #D76302",
",.	c #D36101",
"                                                                ",
"                                                                ",
"                                                                ",
"                                                                ",
"                                                                ",
"                                                                ",
"                              .                                 ",
"                            + @ +                               ",
"                            # $ #                               ",
"                          % & * & %                             ",
"                    = - ; > , ' , > ; - =                       ",
"                  ) ! ~ { ] ^ / ^ ] { ~ ! )                     ",
"                ( _ : < [ } | 1 | } [ < : _ (                   ",
"                2 3 4 5 6 7 8 9 8 7 6 5 4 3 2                   ",
"                0 a b c d ; e f e ; d c b a 0                   ",
"                g h i j k l m n m l k j i h g                   ",
"                o p q r s t u v u t s r q p o                   ",
"                w x y z A B C D C B A z y x w                   ",
"                E F G H I J K L K J I H G F E                   ",
"                  M N O P Q R S R Q P O N M                     ",
"                  T U V W X Y Z Y X W V U T                     ",
"                  `  ...+.@.#.$.#.@.+... .`                     ",
"                    %.&.*.=.-.;.-.=.*.&.%.                      ",
"                        >.,.;.-.;.,.>.                          ",
"                                                                ",
"                                                                ",
"                                                                ",
"                                                                ",
"                                                                ",
"                                                                ",
"                                                                ",
"                                                                "};
