/* XPM */
static char * CONE_xpm[] = {
"32 32 121 2",
"  	c None",
". 	c #F4BC7D",
"+ 	c #F8D9B9",
"@ 	c #E99336",
"# 	c #F0A555",
"$ 	c #F1B274",
"% 	c #E88F31",
"& 	c #EC953C",
"* 	c #F1B172",
"= 	c #F5B57B",
"- 	c #F6AD6D",
"; 	c #EDA867",
"> 	c #EE9F56",
", 	c #EB9840",
"' 	c #E88E2F",
") 	c #F07F15",
"! 	c #EE6600",
"~ 	c #F18826",
"{ 	c #EB8930",
"] 	c #F5EFE8",
"^ 	c #E9AC69",
"/ 	c #E38A29",
"( 	c #F6BB82",
"_ 	c #EF6D00",
": 	c #EE8A2A",
"< 	c #F1B06A",
"[ 	c #ED913E",
"} 	c #EEF4F4",
"| 	c #E1E0D7",
"1 	c #DFCFBD",
"2 	c #F6BB81",
"3 	c #F5A75B",
"4 	c #F07002",
"5 	c #EFCAA0",
"6 	c #F1BA81",
"7 	c #EE9A4B",
"8 	c #E8D2B9",
"9 	c #DFE0DD",
"0 	c #DBD5D1",
"a 	c #F49D47",
"b 	c #F2891F",
"c 	c #EEE8D9",
"d 	c #F2C9A0",
"e 	c #EE9849",
"f 	c #EAA562",
"g 	c #E0BF9E",
"h 	c #DABEA7",
"i 	c #F1831C",
"j 	c #F49639",
"k 	c #F0E8D9",
"l 	c #F2ECE3",
"m 	c #F2B172",
"n 	c #E68127",
"o 	c #DF7A21",
"p 	c #F07D13",
"q 	c #F69A41",
"r 	c #F2DFC8",
"s 	c #ECF5F8",
"t 	c #EAC7A3",
"u 	c #E78732",
"v 	c #E27718",
"w 	c #DD6C0C",
"x 	c #EF790B",
"y 	c #F59840",
"z 	c #F3C89C",
"A 	c #E7ECEA",
"B 	c #E0E4E0",
"C 	c #DECAB4",
"D 	c #DCA26D",
"E 	c #D88A4B",
"F 	c #EF7B0E",
"G 	c #F28B2A",
"H 	c #F5AC6A",
"I 	c #E9C8A7",
"J 	c #DDDFDB",
"K 	c #DAD8D3",
"L 	c #D7D1CD",
"M 	c #D2C9C4",
"N 	c #F49D48",
"O 	c #EF790C",
"P 	c #F29E53",
"Q 	c #EE9244",
"R 	c #E2AB7B",
"S 	c #D9CBBF",
"T 	c #D4CAC5",
"U 	c #CFC3BD",
"V 	c #F5A659",
"W 	c #EE7307",
"X 	c #EE8525",
"Y 	c #EB8C3C",
"Z 	c #E87D26",
"` 	c #E28033",
" .	c #D9894C",
"..	c #D38853",
"+.	c #EE7203",
"@.	c #EF7701",
"#.	c #E97E20",
"$.	c #E47B29",
"%.	c #E2711A",
"&.	c #DC650C",
"*.	c #D75A06",
"=.	c #F5C08C",
"-.	c #EE6B00",
";.	c #F07600",
">.	c #EE7600",
",.	c #DC6F0C",
"'.	c #D76B12",
").	c #D76410",
"!.	c #D25C0B",
"~.	c #F4BF8A",
"{.	c #F2A256",
"].	c #ED6F00",
"^.	c #EE6D00",
"/.	c #E86A00",
"(.	c #D46000",
"_.	c #CF5F00",
":.	c #D26000",
"<.	c #F09E51",
"[.	c #EF7713",
"}.	c #D76302",
"|.	c #D36101",
"                                                                ",
"                                                                ",
"                                                                ",
"                                                                ",
"                                                                ",
"                                                                ",
"                              . +                               ",
"                            @ # @                               ",
"                          $ % & % *                             ",
"                    = - ; > , ' , > ; - =                       ",
"                  ) ! ~ { ] ^ / ^ ] { ~ ! )                     ",
"                ( _ : < [ } | 1 | } [ < : _ 2                   ",
"                3 4 5 6 7 8 9 0 9 8 7 6 5 4 3                   ",
"                a b c d e f g h g f e d c b a                   ",
"                i j k l m { n o n { m l k j i                   ",
"                p q r s t u v w v u t s r q p                   ",
"                x y z A B C D E D C B A z y x                   ",
"                F G H I J K L M L K J I H G F                   ",
"                N O P Q R S T U T S R Q P O N                   ",
"                V W X Y Z `  ... .` Z Y X W V                   ",
"                3 +.@.#.$.%.&.*.&.%.$.#.@.+.3                   ",
"                =.-.;.>.,.'.).!.).'.,.>.;.-.~.                  ",
"                  {.].^./.(._.:._.(./.^.].<.                    ",
"                      [.}.|.:._.:.|.}.[.                        ",
"                                                                ",
"                                                                ",
"                                                                ",
"                                                                ",
"                                                                ",
"                                                                ",
"                                                                ",
"                                                                "};
