/* XPM */
static char *d48c514eb5a04c6ac4bc52a90e72a994fkxxn52utjHWbZI3[] = {
/* columns rows colors chars-per-pixel */
"64 64 13 1 ",
"  c None",
". c #181817",
"X c #D36101",
"o c #DB6602",
"O c #DC650C",
"+ c #F07002",
"@ c #E87D26",
"# c #E8812A",
"$ c #E28033",
"% c #DDDFDB",
"& c #F5EFE8",
"* c #EEF4F4",
"= c #ECF5F8",
/* pixels */
"                                                                ",
"                                                                ",
"                                                                ",
"                                                                ",
"                                                                ",
"                                                                ",
"                                                                ",
"                                                                ",
"                                                                ",
"                                                                ",
"                                                                ",
"                                                                ",
"                               ..                               ",
"                               ..                               ",
"                             ..++..                             ",
"                             ..++..                             ",
"                           ..++++++..                           ",
"                           ..++++++..                           ",
"                     ......##++++++##......                     ",
"                     ......##++++++##......                     ",
"                   ..XXXXXX&&++++++&&XXXXXX..                   ",
"                   ..XXXXXX&&++++++&&XXXXXX..                   ",
"                 ..XX++==++&&##++##&&++==++XX..                 ",
"                 ..XX++==++&&##++##&&++==++XX..                 ",
"               ..XXoo==##++**==##==**++##==ooXX..               ",
"               ..XXoo==##++**==##==**++##==ooXX..               ",
"               ..XXoo==##++@@======@@++##==ooXX..               ",
"               ..XXoo==##++@@======@@++##==ooXX..               ",
"               ..XXoo==##++++@@==@@++++##==ooXX..               ",
"               ..XXoo==##++++@@==@@++++##==ooXX..               ",
"               ..XXoo====##++++++++++##====ooXX..               ",
"               ..XXoo====##++++++++++##====ooXX..               ",
"               ..XXoo%%==####++++++++##==%%ooXX..               ",
"               ..XXoo%%==####++++++++##==%%ooXX..               ",
"               ..XXoo%%%%==####+@@##===%%%%ooXX..               ",
"               ..XXoo%%%%==####+@@##===%%%%ooXX..               ",
"               ..XXoo@@%%%%==========%%%%@@ooXX..               ",
"               ..XXoo@@%%%%==========%%%%@@ooXX..               ",
"               ..XXoooo@@%%%%======%%%%@@ooooXX..               ",
"               ..XXoooo@@%%%%======%%%%@@ooooXX..               ",
"               ..XXXXoooo@@@@%%%%%%$$@@ooooXXXX..               ",
"               ..XXXXoooo@@@@%%%%%%$$@@ooooXXXX..               ",
"               ..XXXXXXooooooOOooOOooooooXXXXXX..               ",
"               ..XXXXXXooooooOOooOOooooooXXXXXX..               ",
"               ..XXXXXXXXXXXooooooooXXXXXXXXXXX..               ",
"               ..XXXXXXXXXXXooooooooXXXXXXXXXXX..               ",
"                 ..XXXXXXXXXXXXXXXXXXXXXXXXXX..                 ",
"                 ..XXXXXXXXXXXXXXXXXXXXXXXXXX..                 ",
"                   ....XXXXXXXXXXXXXXXXXX....                   ",
"                   ....XXXXXXXXXXXXXXXXXX....                   ",
"                       ..................                       ",
"                       ..................                       ",
"                                                                ",
"                                                                ",
"                                                                ",
"                                                                ",
"                                                                ",
"                                                                ",
"                                                                ",
"                                                                ",
"                                                                ",
"                                                                ",
"                                                                ",
"                                                                "
};
