/* XPM */
static char *result[] = {
/* columns rows colors chars-per-pixel */
"32 32 77 1 ",
"  c #282728",
". c #2C2A2B",
"X c #302E2E",
"o c #32302F",
"O c #302F30",
"+ c #343333",
"@ c #393736",
"# c #3A3836",
"$ c #383738",
"% c #3C3C3B",
"& c #423F3B",
"* c #43403D",
"= c #444444",
"- c #494642",
"; c #4D4A47",
": c #4C4C4C",
"> c #514E49",
", c #54514B",
"< c #58544C",
"1 c #535353",
"2 c #5A5650",
"3 c #5E5A54",
"4 c #5B5B5A",
"5 c #615C53",
"6 c #66625B",
"7 c #696358",
"8 c #6F685E",
"9 c #6D6860",
"0 c #726D64",
"q c #767066",
"w c #7E7667",
"e c #777168",
"r c #797469",
"t c #7F7A6F",
"y c #817A6D",
"u c #897F6C",
"i c #8A816D",
"p c #8D8371",
"a c #958A76",
"s c #958C7A",
"d c #988E79",
"f c #9B907D",
"g c #9C9381",
"h c #9F9889",
"j c #A09683",
"k c #A59A85",
"l c #A0978A",
"z c #A49C8C",
"x c #A99E8A",
"c c #A89F90",
"v c #ACA28E",
"b c #ACA493",
"n c #B1A693",
"m c #B6AA94",
"M c #B8AC97",
"N c #B3AB9B",
"B c #B9AE9B",
"V c #B9B09E",
"C c #ABAEA0",
"Z c #B3ACA1",
"A c #B6B1A5",
"S c #BCB4A3",
"D c #B4B0A9",
"F c #BCB6A9",
"G c #BFB9AE",
"H c #BFB9B2",
"J c #C0B6A5",
"K c #C1B8A7",
"L c #C2BAAB",
"P c #C3BEB2",
"I c #C6C0B4",
"U c #C9C2B5",
"Y c #CBC5BB",
"T c #CECBC4",
"R c #D0CCC3",
"E c #D4D1CB",
"W c #D9D6D4",
/* pixels */
"1441::::$..OtBMLI$. ..<BmMc@ .rA",
"1141::::+..OfmMFh.  ..5LBvao  0V",
"1:1:1:1:+..XfMMki.  ..9RJkuo .0V",
"1:::11::$ .OtVmfp.  ..0YmkiX .0V",
":==:::::+..XrSMgs.  ..9Umkio .0V",
":===::::+..XrVVmN.  ..0Hkfi+ .0V",
":===:===+..XrVSVFO  ..0Nfdu. .6B",
"1:::===:+...rSFVC.  ..0Nxku.  ,B",
"11:11:::+..OrSYba.   o0Kmnu.. >M",
"1::441:=+ .OrSYgi.  ..qKMMp.  >V",
"1:1111::+...rAFdp.  ..qJMBl.  :V",
"::1===::$..+rBbda.   .qVmmv.  >V",
"111==:::$ .+rNzag     5KmMbX  ,M",
"111:=:::$...rVGvD     :UmMbX  ,V",
"111:::==$..OrMLYT.    :YMVA.  :V",
"::1::===+...ymmVZ.    -TVSz.  ,B",
"::111===@...ymMMN.    #SmmjX  >B",
":1441===@...wmmJZ.    #mmmxX  >B",
":144::::@ .XynMLh.    @mmmmX  >B",
"::11::::@...0nVJp.    #VmmnX  2B",
"1::=::::@...7mLApO    #RJSbO .9B",
":::==:=:o. X5nFBfO    #WUFZ@ .wA",
":::::=&=+..X7mJmb+    #WPJF; XyV",
"::===%%%+. X0BMmm+    %WUFF<.+tV",
":==%=%%%O...rVMmM#    -ILSZ<.oyV",
"=*%%%%%$...XrVFMN#    -fnVZ<.otV",
"=%%%%%%%o..XrBPnf@    *azbz6.+yV",
"====::::+..XeVEAa& .  *ajga2.+tV",
"=:::1111$...rVYLs*..  *ajaa,..rV",
"1::11441@. .0MmLH, .  *xAfa- .6V",
":1141144%. X8MmKW3 .  >USAf*  ;N",
":1441111%  oqMMFE4 o  7LMLT: .-C"
};
