/* XPM */
static char *result[] = {
/* columns rows colors chars-per-pixel */
"32 32 33 1 ",
"  c #D5D5D5",
". c #D7D7D7",
"X c gray85",
"o c #DADADA",
"O c gainsboro",
"+ c #DDDDDD",
"@ c gray87",
"# c #DFDFDF",
"$ c #E1E1E1",
"% c #E2E2E2",
"& c gray89",
"* c #E4E4E4",
"= c gray90",
"- c #E6E6E6",
"; c gray91",
": c #E9E9E9",
"> c #EAEAEA",
", c gray92",
"< c #ECECEC",
"1 c gray93",
"2 c #EEEEEE",
"3 c #EFEFEF",
"4 c gray94",
"5 c #F1F1F1",
"6 c gray95",
"7 c #F3F3F3",
"8 c #F4F4F4",
"9 c gray96",
"0 c #F6F6F6",
"q c gray97",
"w c #F8F8F8",
"e c #F9F9F9",
"r c gray98",
/* pixels */
"5795211<,:><16095235536q051>-&;<",
"5674211<:==;>1664358743652<>;=:<",
"54333211,&@@%=<464455311<>::-;><",
"3<>343232-O.X#:59632322<;*=-=;,<",
"<;=13211<*o .$,464235652:==;,<<1",
">*&:<,,,;#oo@=<353259q0622135632",
"<;*;;-::=$$*->1576359qq769866632",
"3<:>:;:;==;,<<260843577569853321",
"532341<:=;<343246532233556421111",
"4347851,;:267521331<1259851<<<11",
"223552<<<<2563<,<1<><26005<;;,<1",
"131,;:<12322<;--;>;;,14663,--:<1",
"353>-:<2563<=%*;:,>:,<1221,:;;,<",
"4761>>,<585<=*;,<<>;;,11<,,,;-;>",
"3542<>;;153<;;,<1<;%&,33<;:,;%&;",
"1233<;&&:11<13322<=@%<44<-;<:$$-",
"13661;%*>232586431*O@=;;=&;<,*&;",
"15884>;>365346653:#.XO++O#;<,;;,",
"14773<<1476323673*X X+@OXO=,231<",
"13531<<123<,<146<%O+$%%@.o*<5752",
"11<:><<<<:=-,133,==>,=%O.O=<5752",
"1<>;><:;>;%=<2331,155>%OX+-<3431",
"1<,>:-$&;*#&,36752254<;#o@-,<<<1",
"<>;;-#o+%#O#:380631223<*O@->;;><",
">=$$%+..Ooo$:5095211355:$&;>;-:<",
";$oO#+X.XXO&>36531112562;:,<>>,<",
"*#O+$%##@+$-;><11234213333234311",
"-=*=;>:;=%*;;-:<12585<<356337521",
">,,<3653<;:,:;><125752<133,<42<<",
"<123700754543343113553<<,,:;;-->",
"1356678880q077852135751<<24,&@$;",
"260063469erw86631138q8312705=@#-"
};
