/* XPM */
static char *result[] = {
/* columns rows colors chars-per-pixel */
"64 64 4 1 ",
"  c gray7",
". c #626262",
"X c #E4E4E4",
"o c None",
/* pixels */
"oooooooooooooooooooo                        oooooooooooooooooooo",
"oooooooooooooooooooo                        oooooooooooooooooooo",
"oooooooooooooooooooo                        oooooooooooooooooooo",
"oooooooooooooooooooo                        oooooooooooooooooooo",
"oooooooooooooooo    XXXXXXXXXXXXXXXXXXXXXXXX    oooooooooooooooo",
"oooooooooooooooo    XXXXXXXXXXXXXXXXXXXXXXXX    oooooooooooooooo",
"oooooooooooooooo    XXXXXXXXXXXXXXXXXXXXXXXX    oooooooooooooooo",
"oooooooooooooooo    XXXXXXXXXXXXXXXXXXXXXXXX    oooooooooooooooo",
"oooooooooooo    XXXXXXXXXXXXXXXXXXXXXXXXXXXXXXXX    oooooooooooo",
"oooooooooooo    XXXXXXXXXXXXXXXXXXXXXXXXXXXXXXXX    oooooooooooo",
"oooooooooooo    XXXXXXXXXXXXXXXXXXXXXXXXXXXXXXXX    oooooooooooo",
"oooooooooooo    XXXXXXXXXXXXXXXXXXXXXXXXXXXXXXXX    oooooooooooo",
"oooooooooooo    XXXXXXXXXXXXXXXXXXXXXXXXXXXXXXXX    oooooooooooo",
"oooooooooooo    XXXXXXXXXXXXXXXXXXXXXXXXXXXXXXXX    oooooooooooo",
"oooooooooooo    XXXXXXXXXXXXXXXXXXXXXXXXXXXXXXXX    oooooooooooo",
"oooooooooooo    XXXXXXXXXXXXXXXXXXXXXXXXXXXXXXXX    oooooooooooo",
"oooooooo    ....XXXXXXXXXXXXXXXXXXXXXXXXXXXXXXXX....    oooooooo",
"oooooooo    ....XXXXXXXXXXXXXXXXXXXXXXXXXXXXXXXX....    oooooooo",
"oooooooo    ....XXXXXXXXXXXXXXXXXXXXXXXXXXXXXXXX....    oooooooo",
"oooooooo    ....XXXXXXXXXXXXXXXXXXXXXXXXXXXXXXXX....    oooooooo",
"oooooooo    ....XXXXXXXXXXXXXXXXXXXXXXXXXXXXXXXX....    oooooooo",
"oooooooo    ....XXXXXXXXXXXXXXXXXXXXXXXXXXXXXXXX....    oooooooo",
"oooooooo    ....XXXXXXXXXXXXXXXXXXXXXXXXXXXXXXXX....    oooooooo",
"oooooooo    ....XXXXXXXXXXXXXXXXXXXXXXXXXXXXXXXX....    oooooooo",
"oooooooooooo    XXXXXXXXXXXXXXXXXXXXXXXXXXXXXXXX    oooooooooooo",
"oooooooooooo    XXXXXXXXXXXXXXXXXXXXXXXXXXXXXXXX    oooooooooooo",
"oooooooooooo    XXXXXXXXXXXXXXXXXXXXXXXXXXXXXXXX    oooooooooooo",
"oooooooooooo    XXXXXXXXXXXXXXXXXXXXXXXXXXXXXXXX    oooooooooooo",
"oooooooooooooooo    XXXXXXXXXXXXXXXXXXXXXXXX    oooooooooooooooo",
"oooooooooooooooo    XXXXXXXXXXXXXXXXXXXXXXXX    oooooooooooooooo",
"oooooooooooooooo    XXXXXXXXXXXXXXXXXXXXXXXX    oooooooooooooooo",
"oooooooooooooooo    XXXXXXXXXXXXXXXXXXXXXXXX    oooooooooooooooo",
"oooooooooooo    XXXX        XXXXXXXX        XXXX    oooooooooooo",
"oooooooooooo    XXXX        XXXXXXXX        XXXX    oooooooooooo",
"oooooooooooo    XXXX        XXXXXXXX        XXXX    oooooooooooo",
"oooooooooooo    XXXX        XXXXXXXX        XXXX    oooooooooooo",
"oooooooo    XXXXXXXXXXXXXXXXXXXXXXXXXXXXXXXXXXXXXXXX    oooooooo",
"oooooooo    XXXXXXXXXXXXXXXXXXXXXXXXXXXXXXXXXXXXXXXX    oooooooo",
"oooooooo    XXXXXXXXXXXXXXXXXXXXXXXXXXXXXXXXXXXXXXXX    oooooooo",
"oooooooo    XXXXXXXXXXXXXXXXXXXXXXXXXXXXXXXXXXXXXXXX    oooooooo",
"oooooooo    ....    XXXXXXXXXXXXXXXXXXXX    XXXXXXXX    oooooooo",
"oooooooo    ....    XXXXXXXXXXXXXXXXXXXX    XXXXXXXX    oooooooo",
"oooooooo    ....    XXXXXXXXXXXXXXXXXXXX    XXXXXXXX    oooooooo",
"oooooooo    ....    XXXXXXXXXXXXXXXXXXXX    XXXXXXXX    oooooooo",
"oooooooooooo                XXXXXXXXXXXX    ....XXXX    oooooooo",
"oooooooooooo                XXXXXXXXXXXX    ....XXXX    oooooooo",
"oooooooooooo                XXXXXXXXXXXX    ....XXXX    oooooooo",
"oooooooooooo                XXXXXXXXXXXX    ....XXXX    oooooooo",
"oooooooooooooooo    XXXXXXXX    XXXXXXXX            oooooooooooo",
"oooooooooooooooo    XXXXXXXX    XXXXXXXX            oooooooooooo",
"oooooooooooooooo    XXXXXXXX    XXXXXXXX            oooooooooooo",
"oooooooooooooooo    XXXXXXXX    XXXXXXXX            oooooooooooo",
"oooooooooooooooo    ........                oooooooooooooooooooo",
"oooooooooooooooo    ........                oooooooooooooooooooo",
"oooooooooooooooo    ........                oooooooooooooooooooo",
"oooooooooooooooo    ........                oooooooooooooooooooo",
"oooooooooooooooooooo                    oooooooooooooooooooooooo",
"oooooooooooooooooooo                    oooooooooooooooooooooooo",
"oooooooooooooooooooo                    oooooooooooooooooooooooo",
"oooooooooooooooooooo                    oooooooooooooooooooooooo",
"oooooooooooooooooooooooooooooooooooooooooooooooooooooooooooooooo",
"oooooooooooooooooooooooooooooooooooooooooooooooooooooooooooooooo",
"oooooooooooooooooooooooooooooooooooooooooooooooooooooooooooooooo",
"oooooooooooooooooooooooooooooooooooooooooooooooooooooooooooooooo"
};
