/* XPM */
static char *result[] = {
/* columns rows colors chars-per-pixel */
"64 64 4 1 ",
"  c gray7",
". c #626262",
"X c #E4E4E4",
"o c None",
/* pixels */
"oooooooooooooooooooooooooooooooooooooooooooooooooooooooooooooooo",
"oooooooooooooooooooooooooooooooooooooooooooooooooooooooooooooooo",
"oooooooooooooooooooooooooooooooooooooooooooooooooooooooooooooooo",
"oooooooooooooooooooooooooooooooooooooooooooooooooooooooooooooooo",
"oooooooooooooooooooo                        oooooooooooooooooooo",
"oooooooooooooooooooo                        oooooooooooooooooooo",
"oooooooooooooooooooo                        oooooooooooooooooooo",
"oooooooooooooooooooo                        oooooooooooooooooooo",
"oooooooooooooooo    XXXXXXXXXXXXXXXXXXXXXXXX    oooooooooooooooo",
"oooooooooooooooo    XXXXXXXXXXXXXXXXXXXXXXXX    oooooooooooooooo",
"oooooooooooooooo    XXXXXXXXXXXXXXXXXXXXXXXX    oooooooooooooooo",
"oooooooooooooooo    XXXXXXXXXXXXXXXXXXXXXXXX    oooooooooooooooo",
"oooooooooooo    XXXXXXXXXXXXXXXXXXXXXXXXXXXXXXXX    oooooooooooo",
"oooooooooooo    XXXXXXXXXXXXXXXXXXXXXXXXXXXXXXXX    oooooooooooo",
"oooooooooooo    XXXXXXXXXXXXXXXXXXXXXXXXXXXXXXXX    oooooooooooo",
"oooooooooooo    XXXXXXXXXXXXXXXXXXXXXXXXXXXXXXXX    oooooooooooo",
"oooooooooooo    XXXXXXXXXXXXXXXXXXXXXXXXXXXXXXXX    oooooooooooo",
"oooooooooooo    XXXXXXXXXXXXXXXXXXXXXXXXXXXXXXXX    oooooooooooo",
"oooooooooooo    XXXXXXXXXXXXXXXXXXXXXXXXXXXXXXXX    oooooooooooo",
"oooooooooooo    XXXXXXXXXXXXXXXXXXXXXXXXXXXXXXXX    oooooooooooo",
"oooooooo    ....XXXXXXXXXXXXXXXXXXXXXXXXXXXXXXXX....    oooooooo",
"oooooooo    ....XXXXXXXXXXXXXXXXXXXXXXXXXXXXXXXX....    oooooooo",
"oooooooo    ....XXXXXXXXXXXXXXXXXXXXXXXXXXXXXXXX....    oooooooo",
"oooooooo    ....XXXXXXXXXXXXXXXXXXXXXXXXXXXXXXXX....    oooooooo",
"oooooooo    ....XXXXXXXXXXXXXXXXXXXXXXXXXXXXXXXX....    oooooooo",
"oooooooo    ....XXXXXXXXXXXXXXXXXXXXXXXXXXXXXXXX....    oooooooo",
"oooooooo    ....XXXXXXXXXXXXXXXXXXXXXXXXXXXXXXXX....    oooooooo",
"oooooooo    ....XXXXXXXXXXXXXXXXXXXXXXXXXXXXXXXX....    oooooooo",
"oooooooooooo    XXXXXXXXXXXXXXXXXXXXXXXXXXXXXXXX    oooooooooooo",
"oooooooooooo    XXXXXXXXXXXXXXXXXXXXXXXXXXXXXXXX    oooooooooooo",
"oooooooooooo    XXXXXXXXXXXXXXXXXXXXXXXXXXXXXXXX    oooooooooooo",
"oooooooooooo    XXXXXXXXXXXXXXXXXXXXXXXXXXXXXXXX    oooooooooooo",
"oooooooooooooooo    XXXXXXXXXXXXXXXXXXXXXXXX    oooooooooooooooo",
"oooooooooooooooo    XXXXXXXXXXXXXXXXXXXXXXXX    oooooooooooooooo",
"oooooooooooooooo    XXXXXXXXXXXXXXXXXXXXXXXX    oooooooooooooooo",
"oooooooooooooooo    XXXXXXXXXXXXXXXXXXXXXXXX    oooooooooooooooo",
"oooooooooooo    XXXX        XXXXXXXX        XXXX    oooooooooooo",
"oooooooooooo    XXXX        XXXXXXXX        XXXX    oooooooooooo",
"oooooooooooo    XXXX        XXXXXXXX        XXXX    oooooooooooo",
"oooooooooooo    XXXX        XXXXXXXX        XXXX    oooooooooooo",
"oooooooo    XXXXXXXXXXXXXXXXXXXXXXXXXXXXXXXXXXXXXXXX    oooooooo",
"oooooooo    XXXXXXXXXXXXXXXXXXXXXXXXXXXXXXXXXXXXXXXX    oooooooo",
"oooooooo    XXXXXXXXXXXXXXXXXXXXXXXXXXXXXXXXXXXXXXXX    oooooooo",
"oooooooo    XXXXXXXXXXXXXXXXXXXXXXXXXXXXXXXXXXXXXXXX    oooooooo",
"oooo    XXXXXXXX    XXXXXXXXXXXXXXXXXXXXXXXX    XXXXXXXX    oooo",
"oooo    XXXXXXXX    XXXXXXXXXXXXXXXXXXXXXXXX    XXXXXXXX    oooo",
"oooo    XXXXXXXX    XXXXXXXXXXXXXXXXXXXXXXXX    XXXXXXXX    oooo",
"oooo    XXXXXXXX    XXXXXXXXXXXXXXXXXXXXXXXX    XXXXXXXX    oooo",
"oooo    XXXX....    XXXXXXXXXXXXXXXXXXXXXXXX    ....XXXX    oooo",
"oooo    XXXX....    XXXXXXXXXXXXXXXXXXXXXXXX    ....XXXX    oooo",
"oooo    XXXX....    XXXXXXXXXXXXXXXXXXXXXXXX    ....XXXX    oooo",
"oooo    XXXX....    XXXXXXXXXXXXXXXXXXXXXXXX    ....XXXX    oooo",
"oooooooo            XXXXXXXXXXXXXXXXXXXXXXXX            oooooooo",
"oooooooo            XXXXXXXXXXXXXXXXXXXXXXXX            oooooooo",
"oooooooo            XXXXXXXXXXXXXXXXXXXXXXXX            oooooooo",
"oooooooo            XXXXXXXXXXXXXXXXXXXXXXXX            oooooooo",
"oooooooooooooooo    XXXXXXXX        XXXXXXXX    oooooooooooooooo",
"oooooooooooooooo    XXXXXXXX        XXXXXXXX    oooooooooooooooo",
"oooooooooooooooo    XXXXXXXX        XXXXXXXX    oooooooooooooooo",
"oooooooooooooooo    XXXXXXXX        XXXXXXXX    oooooooooooooooo",
"oooooooooooooooo    XXXXXXXX        XXXXXXXX    oooooooooooooooo",
"oooooooooooooooo    XXXXXXXX        XXXXXXXX    oooooooooooooooo",
"oooooooooooooooo    XXXXXXXX        XXXXXXXX    oooooooooooooooo",
"oooooooooooooooo    XXXXXXXX        XXXXXXXX    oooooooooooooooo"
};
