/* XPM */
static char *result[] = {
/* columns rows colors chars-per-pixel */
"64 64 4 1 ",
"  c gray7",
". c #626262",
"X c #E4E4E4",
"o c None",
/* pixels */
"oooooooooooooooooooo                        oooooooooooooooooooo",
"oooooooooooooooooooo                        oooooooooooooooooooo",
"oooooooooooooooooooo                        oooooooooooooooooooo",
"oooooooooooooooooooo                        oooooooooooooooooooo",
"oooooooooooooooo    XXXXXXXXXXXXXXXXXXXXXXXX    oooooooooooooooo",
"oooooooooooooooo    XXXXXXXXXXXXXXXXXXXXXXXX    oooooooooooooooo",
"oooooooooooooooo    XXXXXXXXXXXXXXXXXXXXXXXX    oooooooooooooooo",
"oooooooooooooooo    XXXXXXXXXXXXXXXXXXXXXXXX    oooooooooooooooo",
"oooooooooooo    XXXXXXXXXXXXXXXXXXXXXXXXXXXXXXXX    oooooooooooo",
"oooooooooooo    XXXXXXXXXXXXXXXXXXXXXXXXXXXXXXXX    oooooooooooo",
"oooooooooooo    XXXXXXXXXXXXXXXXXXXXXXXXXXXXXXXX    oooooooooooo",
"oooooooooooo    XXXXXXXXXXXXXXXXXXXXXXXXXXXXXXXX    oooooooooooo",
"oooooooooooo    XXXXXXXXXXXXXXXXXXXXXXXXXXXXXXXX    oooooooooooo",
"oooooooooooo    XXXXXXXXXXXXXXXXXXXXXXXXXXXXXXXX    oooooooooooo",
"oooooooooooo    XXXXXXXXXXXXXXXXXXXXXXXXXXXXXXXX    oooooooooooo",
"oooooooooooo    XXXXXXXXXXXXXXXXXXXXXXXXXXXXXXXX    oooooooooooo",
"oooooooo    ....XXXXXXXXXXXXXXXXXXXXXXXXXXXXXXXX....    oooooooo",
"oooooooo    ....XXXXXXXXXXXXXXXXXXXXXXXXXXXXXXXX....    oooooooo",
"oooooooo    ....XXXXXXXXXXXXXXXXXXXXXXXXXXXXXXXX....    oooooooo",
"oooooooo    ....XXXXXXXXXXXXXXXXXXXXXXXXXXXXXXXX....    oooooooo",
"oooooooo    ....XXXXXXXXXXXXXXXXXXXXXXXXXXXXXXXX....    oooooooo",
"oooooooo    ....XXXXXXXXXXXXXXXXXXXXXXXXXXXXXXXX....    oooooooo",
"oooooooo    ....XXXXXXXXXXXXXXXXXXXXXXXXXXXXXXXX....    oooooooo",
"oooooooo    ....XXXXXXXXXXXXXXXXXXXXXXXXXXXXXXXX....    oooooooo",
"oooooooooooo    XXXXXXXXXXXXXXXXXXXXXXXXXXXXXXXX    oooooooooooo",
"oooooooooooo    XXXXXXXXXXXXXXXXXXXXXXXXXXXXXXXX    oooooooooooo",
"oooooooooooo    XXXXXXXXXXXXXXXXXXXXXXXXXXXXXXXX    oooooooooooo",
"oooooooooooo    XXXXXXXXXXXXXXXXXXXXXXXXXXXXXXXX    oooooooooooo",
"oooooooooooooooo    XXXXXXXXXXXXXXXXXXXXXXXX    oooooooooooooooo",
"oooooooooooooooo    XXXXXXXXXXXXXXXXXXXXXXXX    oooooooooooooooo",
"oooooooooooooooo    XXXXXXXXXXXXXXXXXXXXXXXX    oooooooooooooooo",
"oooooooooooooooo    XXXXXXXXXXXXXXXXXXXXXXXX    oooooooooooooooo",
"oooooooooooo    XXXX        XXXXXXXX        XXXX    oooooooooooo",
"oooooooooooo    XXXX        XXXXXXXX        XXXX    oooooooooooo",
"oooooooooooo    XXXX        XXXXXXXX        XXXX    oooooooooooo",
"oooooooooooo    XXXX        XXXXXXXX        XXXX    oooooooooooo",
"oooooooo    XXXXXXXXXXXXXXXXXXXXXXXXXXXXXXXXXXXXXXXX    oooooooo",
"oooooooo    XXXXXXXXXXXXXXXXXXXXXXXXXXXXXXXXXXXXXXXX    oooooooo",
"oooooooo    XXXXXXXXXXXXXXXXXXXXXXXXXXXXXXXXXXXXXXXX    oooooooo",
"oooooooo    XXXXXXXXXXXXXXXXXXXXXXXXXXXXXXXXXXXXXXXX    oooooooo",
"oooooooo    XXXXXXXX    XXXXXXXXXXXXXXXXXXXX    ....    oooooooo",
"oooooooo    XXXXXXXX    XXXXXXXXXXXXXXXXXXXX    ....    oooooooo",
"oooooooo    XXXXXXXX    XXXXXXXXXXXXXXXXXXXX    ....    oooooooo",
"oooooooo    XXXXXXXX    XXXXXXXXXXXXXXXXXXXX    ....    oooooooo",
"oooooooo    XXXX....    XXXXXXXXXXXX                oooooooooooo",
"oooooooo    XXXX....    XXXXXXXXXXXX                oooooooooooo",
"oooooooo    XXXX....    XXXXXXXXXXXX                oooooooooooo",
"oooooooo    XXXX....    XXXXXXXXXXXX                oooooooooooo",
"oooooooooooo            XXXXXXXX    XXXXXXXX    oooooooooooooooo",
"oooooooooooo            XXXXXXXX    XXXXXXXX    oooooooooooooooo",
"oooooooooooo            XXXXXXXX    XXXXXXXX    oooooooooooooooo",
"oooooooooooo            XXXXXXXX    XXXXXXXX    oooooooooooooooo",
"oooooooooooooooooooo                ........    oooooooooooooooo",
"oooooooooooooooooooo                ........    oooooooooooooooo",
"oooooooooooooooooooo                ........    oooooooooooooooo",
"oooooooooooooooooooo                ........    oooooooooooooooo",
"oooooooooooooooooooooooo                    oooooooooooooooooooo",
"oooooooooooooooooooooooo                    oooooooooooooooooooo",
"oooooooooooooooooooooooo                    oooooooooooooooooooo",
"oooooooooooooooooooooooo                    oooooooooooooooooooo",
"oooooooooooooooooooooooooooooooooooooooooooooooooooooooooooooooo",
"oooooooooooooooooooooooooooooooooooooooooooooooooooooooooooooooo",
"oooooooooooooooooooooooooooooooooooooooooooooooooooooooooooooooo",
"oooooooooooooooooooooooooooooooooooooooooooooooooooooooooooooooo"
};
